<svg xmlns="http://www.w3.org/2000/svg" width="1920" height="635" viewBox="0 0 1920 635" fill="none"><rect y="44" width="1920" height="591" fill="#2D2C6E"/><path d="M1242.4 8.28848C1242.77 8.46348 1243.18 8.54748 1243.6 8.59948C1243.57 8.25548 1242.87 8.03348 1243.6 8.03348C1243.6 8.02948 1243.59 8.02548 1243.59 8.02148C1243.06 8.02248 1242.4 8.04448 1242.4 8.28848Z" fill="#2D2C6E"/><path d="M1755.18 8.21166C1755.13 8.20966 1755.09 8.20666 1755.04 8.20166C1755.12 8.30766 1755.19 8.39366 1755.22 8.41866C1755.18 8.33566 1755.17 8.26866 1755.18 8.21166Z" fill="#2D2C6E"/><path d="M1907.51 12.1474C1907.65 11.6124 1909.52 12.0144 1908.85 12.5494C1910.19 12.4144 1910.46 11.7454 1911.53 11.3464C1912.33 12.2824 1914.87 11.0774 1915.14 11.0774C1913.93 9.60645 1906.18 11.6114 1903.77 10.5434C1906.98 8.93845 1899.76 8.67245 1894.68 9.07145C1896.15 9.73945 1893.47 9.34045 1893.34 9.73945C1892.67 9.60545 1893.21 9.34045 1893.74 9.34045C1892.22 8.93645 1890.25 9.52045 1888.51 9.43045C1888.24 9.54745 1888.78 9.69545 1888.78 10.0284C1888.12 9.89545 1887.05 10.0284 1886.91 9.76045C1887.58 9.62545 1887.18 9.22545 1886.91 9.09245C1886.95 9.10045 1886.99 9.10445 1887.03 9.11045C1886.99 9.09445 1886.96 9.09045 1886.92 9.07345C1886.92 8.80545 1887.72 8.80545 1888.26 8.80545C1887.99 8.00145 1886.38 7.86845 1884.11 8.00145C1883.98 8.40245 1884.51 8.40245 1884.51 8.67245C1881.17 8.67245 1877.56 8.93845 1875.02 9.34045C1875.02 9.74045 1875.69 9.87445 1875.42 10.5434C1876.49 10.8114 1877.96 10.9444 1878.09 11.7474C1877.29 12.2814 1875.15 12.1464 1873.15 12.1464C1871.41 11.7474 1872.48 11.3454 1871.27 11.0784C1870.2 11.0784 1869 11.0784 1869 11.4784C1868.33 10.9444 1866.99 10.8104 1866.33 10.4094C1865.79 11.4784 1863.79 12.0134 1861.78 12.4154C1861.51 13.0844 1862.58 13.0844 1861.78 13.4854C1861.38 13.2184 1860.17 12.8164 1860.44 13.7524C1858.7 13.2194 1855.23 14.4224 1853.22 13.0844C1852.02 13.4864 1850.55 13.6194 1850.01 14.2874C1844.93 14.2874 1837.71 15.3584 1830.62 15.2254C1830.08 15.0904 1829.68 14.9574 1829.28 14.6904C1828.48 14.9584 1827.14 14.9584 1825.94 14.9584C1825.81 14.9584 1825.54 14.9584 1825.41 14.9584C1825.41 15.0934 1825.41 15.0934 1825.41 15.0934C1824.98 15.1624 1824.61 15.2344 1824.32 15.3224C1824.32 15.3444 1824.33 15.3544 1824.33 15.3784C1824.28 15.3784 1824.23 15.3784 1824.18 15.3784C1824 15.4484 1823.85 15.5254 1823.8 15.6264C1823.72 15.6264 1823.68 15.6264 1823.63 15.6264C1823.62 15.6634 1823.63 15.7134 1823.66 15.7784C1823.13 15.7784 1822.72 15.6434 1822.32 15.5084C1822.32 15.3764 1822.32 15.2434 1822.32 15.1094C1823.13 15.1094 1823.8 14.9754 1824.2 14.8424C1824.2 14.8744 1824.22 14.9134 1824.23 14.9484C1825.6 13.9134 1827.86 13.2614 1828.08 12.1464C1830.62 12.2814 1831.16 11.6114 1834.9 11.7474C1834.77 11.4784 1833.96 11.6124 1833.96 11.3464C1835.17 11.2124 1837.98 11.4814 1838.51 10.5434C1839.04 10.6784 1838.78 10.9444 1838.91 11.2124C1841.05 10.6784 1841.72 10.6784 1844.39 10.4094C1841.58 11.0784 1845.59 10.9444 1846.66 11.0784C1847.06 10.4094 1845.19 10.6784 1844.79 10.4094C1847.73 10.5434 1850.41 9.74045 1854.29 10.0104C1854.29 9.60845 1855.49 9.74045 1855.22 9.20645C1856.29 9.20645 1857.36 9.20645 1858.43 9.20645C1858.7 10.8104 1865.65 9.20645 1865.65 10.4104C1868.19 9.47445 1873.01 9.74245 1872.87 7.73645C1872.47 7.73645 1872.61 8.00245 1872.47 8.13645C1866.19 7.20045 1861.78 8.40445 1856.56 8.93945C1855.89 8.80445 1855.09 8.67145 1855.22 8.13645C1852.41 8.53645 1847.87 8.00045 1846.13 9.20445C1844.39 9.20445 1841.05 8.80445 1841.98 9.47445C1838.64 9.33945 1839.44 9.33945 1835.57 9.20445C1837.3 8.13645 1829.95 8.93845 1828.75 9.47445C1829.41 8.67145 1827.14 9.07245 1824.6 8.67145C1824.6 8.93945 1824.6 9.20445 1824.6 9.47445C1823.4 9.33945 1824.2 9.20445 1824.2 8.67145C1822.46 8.53645 1821.39 8.13645 1820.06 8.00145C1819.65 8.26945 1819.12 8.53645 1818.72 8.67145C1817.38 8.67145 1816.98 8.26945 1816.44 7.86745C1818.45 8.40245 1820.72 8.00045 1820.99 6.26345C1819.65 6.13045 1818.18 5.99545 1818.32 5.19545C1817.52 5.19545 1816.84 5.19545 1816.04 5.19545C1815.64 5.86345 1816.85 5.86345 1816.98 6.26345C1815.91 5.99545 1815.51 5.59345 1815.11 5.19545C1810.16 5.32845 1808.96 5.72845 1804.68 4.52645C1799.2 6.53145 1789.97 4.92745 1785.16 6.13045C1784.76 5.72845 1783.95 5.59545 1782.48 5.72845C1781.68 6.79845 1779.54 7.46845 1782.48 8.13645C1786.09 7.46845 1791.31 6.66445 1795.18 6.26545C1796.39 6.39845 1795.58 6.53245 1795.58 7.06745C1796.39 7.06745 1797.86 7.33445 1797.46 6.66645C1798.26 6.79945 1797.86 7.33445 1799.33 7.06745C1799.19 7.33445 1798.93 7.46845 1798.93 7.73545C1799.57 7.84945 1799.87 7.81245 1800.07 7.72445C1798.25 8.71045 1797.02 9.37045 1793.58 9.60745C1793.45 10.0074 1793.98 10.0074 1793.98 10.2754C1791.44 9.60545 1791.84 11.2124 1789.04 10.9444C1788.9 10.4094 1789.7 10.2754 1790.37 10.1404C1788.5 9.47445 1786.23 10.4104 1784.49 9.07245C1783.68 9.34245 1782.08 9.74245 1783.15 10.2774C1779.54 9.60845 1774.32 9.60845 1772.72 9.20745C1770.98 9.87645 1768.31 10.1454 1767.24 11.2134C1765.9 11.3484 1766.7 10.5454 1764.96 10.8134C1764.96 10.1454 1766.97 10.1454 1764.56 10.1454C1764.83 10.0124 1765.37 9.87845 1765.9 9.74545C1764.17 9.21045 1763.76 10.8154 1762.69 11.2164C1761.09 11.3514 1760.15 10.6814 1759.08 11.2164C1759.62 10.9484 1759.62 10.6814 1759.08 10.4134C1760.29 10.1474 1761.09 10.9484 1760.96 10.1474C1760.16 10.1474 1759.48 10.1474 1758.68 10.1474C1760.29 9.47745 1762.03 8.27445 1765.5 8.54145C1765.91 8.14045 1766.84 8.00645 1766.44 7.33845C1768.85 7.33845 1776.47 7.33845 1778.21 5.86645C1775.93 6.26845 1775.8 5.46645 1773.66 6.13445C1772.72 6.13445 1774.33 5.59945 1773.26 5.33245C1772.46 6.00045 1771.66 5.33245 1770.59 5.33245C1765.51 5.46645 1760.96 6.13645 1756.55 7.20445C1757.15 8.04345 1755.28 7.70445 1755.17 8.20145C1755.35 8.20745 1755.54 8.19945 1755.74 8.15645C1756.27 9.49345 1752.93 8.95845 1752.26 9.09345C1752.8 9.09345 1753.33 9.09345 1753.2 9.49345C1750.66 9.49345 1749.32 9.89545 1746.78 10.2954C1745.97 9.89645 1745.04 9.49345 1744.91 8.69145C1746.24 8.29045 1748.11 7.48945 1749.45 8.29045C1748.25 7.62345 1752.93 6.95445 1754.4 7.48945C1753.66 7.59545 1754.18 8.11245 1755.03 8.19345C1754.66 7.72045 1753.93 6.62245 1754.81 6.40445C1752.67 6.67145 1749.73 6.00345 1746.65 6.67145C1745.98 5.46945 1741.7 6.27245 1739.43 6.27245C1739.43 6.00345 1739.96 6.00345 1740.36 6.00345C1733.95 5.33545 1720.84 7.20745 1711.35 5.60445C1710.81 4.66745 1712.42 4.66745 1713.22 4.39945C1711.48 2.66145 1708 3.46345 1705.06 2.79545C1700.52 3.73145 1695.7 1.72545 1689.68 1.99245C1689.55 1.45745 1691.42 1.85745 1691.02 1.18945C1689.95 0.789447 1688.75 1.45745 1686.88 1.18945C1685.94 2.39245 1685.54 3.19645 1685.94 4.26545C1681.53 5.60145 1678.32 7.47445 1681.39 9.74645C1681.12 12.2874 1670.56 11.7524 1667.35 11.7524C1667.62 11.6194 1667.75 11.3514 1668.29 11.3514C1667.35 10.6834 1664.28 11.0844 1664.68 9.88045C1662.27 9.61245 1662.67 10.5484 1661.07 10.5484C1661.2 10.9484 1662 11.3494 1661.74 11.6174C1659.33 11.0834 1653.31 12.4204 1651.17 11.4834C1654.38 9.87845 1647.16 9.61145 1642.08 10.0124C1643.55 10.6804 1640.88 10.2804 1640.74 10.6804C1640.07 10.5464 1640.61 10.2804 1641.14 10.2804C1639.58 9.86345 1637.54 10.4884 1635.76 10.3484C1635.86 10.4654 1636.06 10.6304 1636.06 10.8284C1635.39 10.6944 1634.32 10.8284 1634.18 10.5604C1634.69 10.4604 1634.58 10.2064 1634.39 10.0324C1634.37 10.0234 1634.34 10.0214 1634.32 10.0114C1634.32 10.0024 1634.33 9.99645 1634.33 9.98945C1634.28 9.95245 1634.23 9.91745 1634.19 9.89445C1634.24 9.90445 1634.3 9.91245 1634.36 9.91845C1634.53 9.74245 1635.2 9.74245 1635.66 9.74245C1635.39 8.94045 1633.79 8.80545 1631.52 8.94045C1631.38 9.34045 1631.92 9.34045 1631.92 9.60845C1628.57 9.60845 1624.96 9.87645 1622.42 10.2774C1622.42 10.6784 1623.09 10.8114 1622.82 11.4794C1623.89 11.7484 1625.36 11.8814 1625.5 12.6844C1624.7 13.2174 1622.56 13.0844 1620.55 13.0844C1618.81 12.6844 1619.88 12.2834 1618.68 12.0164C1617.61 12.0164 1616.41 12.0164 1616.41 12.4164C1615.74 11.8814 1614.4 11.7474 1613.73 11.3464C1613.2 12.4164 1611.19 12.9524 1609.19 13.3544C1608.92 14.0224 1609.99 14.0224 1609.19 14.4224C1608.78 14.1554 1607.58 13.7534 1607.85 14.6914C1606.11 14.1564 1602.63 15.3594 1600.62 14.0224C1599.42 14.4224 1597.95 14.5574 1597.42 15.2254C1591.13 15.2254 1581.5 16.9624 1572.94 15.8934C1572.94 16.1614 1572.94 16.4284 1572.94 16.6964C1572.54 16.4284 1571.88 16.4284 1571.07 16.4284C1571.12 16.3644 1571.18 16.3034 1571.23 16.2404C1571.11 16.2694 1571 16.3684 1571.07 16.5764C1570.53 16.5764 1570.13 16.4424 1569.73 16.3084C1569.73 16.1754 1569.73 16.0404 1569.73 15.9084C1570.53 15.9084 1571.2 15.7744 1571.6 15.6384C1571.52 15.7184 1571.55 15.7984 1571.61 15.8744C1572.96 14.7654 1575.39 14.1074 1575.62 12.9504C1578.16 13.0834 1578.7 12.4154 1582.44 12.5504C1582.3 12.2834 1581.5 12.4164 1581.5 12.1504C1582.71 12.0154 1585.52 12.2844 1586.05 11.3474C1586.58 11.4804 1586.32 11.7474 1586.45 12.0154C1588.59 11.4804 1589.26 11.4804 1591.93 11.2124C1589.12 11.8824 1593.13 11.7474 1594.2 11.8824C1594.6 11.2124 1592.73 11.4804 1592.33 11.2124C1595.27 11.3474 1597.95 10.5444 1601.82 10.8124C1601.82 10.4114 1603.03 10.5444 1602.76 10.0114C1603.83 10.0114 1604.9 10.0114 1605.97 10.0114C1606.24 11.6144 1613.19 10.0114 1613.19 11.2144C1615.73 10.2774 1620.55 10.5454 1620.41 8.53945C1620.01 8.53945 1620.15 8.80645 1620.01 8.94045C1613.73 8.00245 1609.32 9.20645 1604.1 9.74145C1603.43 9.60845 1602.63 9.47345 1602.76 8.94045C1599.95 9.34045 1595.41 8.80345 1593.67 10.0084C1591.93 10.0084 1588.59 9.60845 1589.52 10.2764C1586.18 10.1414 1586.98 10.1414 1583.1 10.0084C1584.84 8.93845 1577.49 9.74045 1576.29 10.2764C1576.95 9.47345 1574.68 9.87545 1572.14 9.47345C1572.14 9.74145 1572.14 10.0084 1572.14 10.2764C1570.94 10.1414 1571.74 10.0084 1571.74 9.47345C1570 9.34045 1568.93 8.93845 1567.59 8.80545C1567.19 9.07345 1566.66 9.34045 1566.26 9.47345C1564.92 9.47345 1564.52 9.07245 1563.98 8.67245C1565.99 9.20545 1568.26 8.80545 1568.53 7.06745C1567.19 6.93445 1565.72 6.79945 1565.85 5.99845C1565.05 5.99845 1564.39 5.99845 1563.58 5.99845C1563.18 6.66645 1564.39 6.66645 1564.52 7.06745C1563.45 6.79945 1563.05 6.39945 1562.65 5.99845C1557.7 6.13245 1556.5 6.53345 1552.22 5.33045C1546.73 7.33445 1537.51 5.73145 1532.69 6.93445C1532.29 6.53345 1531.49 6.40045 1530.02 6.53345C1529.22 7.60245 1527.08 8.27245 1530.02 8.94045C1533.63 8.27245 1538.84 7.46945 1542.72 7.06845C1543.93 7.20245 1543.12 7.33545 1543.12 7.87045C1543.93 7.87045 1545.4 8.14045 1544.99 7.47045C1545.8 7.60345 1545.4 8.14045 1546.87 7.87045C1546.73 8.14045 1546.47 8.27045 1546.47 8.53945C1547.11 8.65545 1547.41 8.61745 1547.61 8.52845C1545.79 9.51445 1544.56 10.1744 1541.12 10.4114C1540.98 10.8114 1541.52 10.8114 1541.52 11.0804C1538.98 10.4104 1539.38 12.0154 1536.57 11.7484C1536.44 11.2144 1537.24 11.0804 1537.91 10.9454C1536.04 10.2774 1533.76 11.2164 1532.03 9.87745C1531.22 10.1444 1529.62 10.5464 1530.69 11.0814C1527.08 10.4114 1521.86 10.4114 1520.26 10.0114C1518.52 10.6814 1515.84 10.9494 1514.78 12.0174C1513.44 12.1524 1514.24 11.3494 1512.5 11.6184C1512.5 10.9494 1514.51 10.9494 1512.1 10.9494C1512.37 10.8164 1512.91 10.6834 1513.44 10.5494C1511.7 10.0144 1511.3 11.6194 1510.23 12.0204C1508.63 12.1544 1507.69 11.4874 1506.62 12.0204C1507.16 11.7534 1507.16 11.4874 1506.62 11.2194C1507.82 10.9504 1508.63 11.7534 1508.49 10.9504C1507.69 10.9504 1507.02 10.9504 1506.22 10.9504C1507.83 10.2824 1509.57 9.07845 1513.04 9.34645C1513.44 8.94545 1514.38 8.81145 1513.98 8.14345C1516.38 8.14345 1524.01 8.14345 1525.74 6.67045C1523.47 7.07245 1523.34 6.27045 1521.2 6.94045C1520.26 6.94045 1521.87 6.40545 1520.8 6.13745C1520 6.80545 1519.19 6.13745 1518.12 6.13745C1513.04 6.27045 1508.5 6.94045 1504.08 8.00845C1504.68 8.84045 1502.85 8.51245 1502.71 8.99145C1502.81 8.98245 1502.91 8.97645 1503.01 8.95545C1503.54 10.2924 1500.2 9.62345 1499.53 9.89345C1500.07 9.89345 1500.6 9.89345 1500.47 10.2934C1497.93 10.2934 1496.59 10.6954 1494.05 11.0964C1493.25 10.6964 1492.31 10.2934 1492.18 9.49245C1493.52 9.09145 1495.39 8.28945 1496.72 9.09145C1495.52 8.42245 1500.2 7.75445 1501.67 8.28945C1500.85 8.40645 1501.57 9.03645 1502.57 9.01145C1502.21 8.54445 1501.46 7.42945 1502.35 7.20845C1500.21 7.47645 1497.26 6.80845 1494.19 7.47645C1493.52 6.27345 1489.24 7.07645 1486.97 7.07645C1486.97 6.80845 1487.5 6.80845 1487.9 6.80845C1481.49 6.14045 1468.38 8.01145 1458.89 6.40845C1458.35 5.47045 1459.96 5.47045 1460.76 5.20445C1459.02 3.46645 1455.54 4.26745 1452.6 3.60045C1448.06 4.53645 1443.24 2.53145 1437.22 2.79745C1437.09 2.26445 1438.96 2.66345 1438.56 1.99545C1437.49 1.59445 1436.29 2.26445 1434.42 1.99545C1433.48 3.19745 1433.08 4.00145 1433.48 5.07045C1431.07 5.87245 1428.93 6.67545 1428.13 7.74445C1428 7.74445 1427.86 7.74445 1427.73 7.74445C1427.33 8.01245 1427.06 8.27945 1426.39 8.54645C1421.98 7.87845 1410.75 8.01245 1402.32 7.87845C1396.3 7.74445 1391.36 8.81545 1388.28 9.88545C1388.55 10.9544 1388.15 11.3564 1389.22 11.8914C1387.48 12.0244 1385.21 11.7574 1383.74 12.5594C1383.2 12.4264 1383.47 12.1584 1383.34 11.8914C1377.45 12.9604 1376.52 9.75145 1371.04 10.2874C1372.64 9.21845 1367.69 10.4214 1367.43 9.21845C1357.13 10.6894 1343.62 8.41645 1332.52 10.0214C1331.72 11.6254 1329.45 12.5604 1326.64 13.2304C1325.7 13.0954 1327.18 12.8294 1326.24 12.5604C1322.63 12.0274 1319.55 12.8294 1317.15 11.7594C1313.27 11.7594 1304.98 13.7654 1302.57 12.0274C1300.57 12.1604 1298.56 12.0274 1296.42 11.8944V14.7024C1296.82 14.8344 1297.22 14.9684 1297.62 15.1014C1299.36 15.1014 1300.83 14.4334 1299.9 14.0344C1301.23 14.0344 1302.17 14.3014 1302.57 14.8354C1304.31 14.4344 1304.18 14.5684 1304.44 15.1044C1305.51 15.1044 1307.52 13.6324 1307.65 15.1044C1308.59 14.7034 1310.99 14.8354 1311.8 14.3014C1313.27 14.3014 1312.33 15.6394 1313.67 14.9694C1313.54 16.4424 1309.39 15.9074 1309.53 16.8414C1307.65 17.1104 1303.91 16.3074 1305.91 16.1734C1304.58 15.3714 1300.3 17.3774 1300.03 15.9064C1298.29 16.0394 1295.75 16.8424 1297.76 17.3774C1297.36 17.5104 1296.95 17.6454 1296.55 17.6454V19.2494C1296.42 19.2494 1296.28 19.1154 1296.15 19.1154C1293.48 19.6484 1292.54 20.3184 1289.73 19.7834C1289.73 19.5174 1289.87 19.3834 1290 19.3834C1289.73 19.5184 1289.47 19.5184 1289.2 19.5184V16.9774C1288.67 16.9774 1288.13 16.8424 1287.19 16.8424C1288.66 16.3094 1285.86 16.4424 1287.19 16.1744C1286.79 16.1744 1282.11 15.6394 1282.25 16.8424C1282.11 16.7084 1280.24 16.7084 1280.51 16.5744C1278.64 16.8414 1275.96 15.2364 1274.09 16.4414C1274.49 15.9064 1272.22 15.9064 1271.82 15.2364C1268.47 15.3704 1265.4 15.2364 1265.4 13.7654C1265 13.7654 1265.13 14.0334 1265 14.1664C1264.86 14.4334 1264.46 14.0324 1263.66 14.1664C1263.53 15.6364 1259.38 14.7004 1257.24 15.3694C1256.44 15.3694 1256.44 14.1664 1257.24 14.1664C1256.72 13.2584 1253.69 13.6064 1251.92 13.3844C1251.76 13.4804 1251.57 13.5504 1251.36 13.5074C1251.22 12.9724 1252.56 12.1714 1252.69 12.4394C1252.57 12.5114 1252.53 12.5854 1252.54 12.6574C1252.68 12.5994 1252.86 12.5624 1253.1 12.5624C1254.44 12.6954 1252.7 12.9634 1253.1 13.3654C1254.17 12.8314 1254.97 12.2974 1256.71 12.6954C1256.58 11.8944 1258.05 11.8944 1258.05 11.2244C1258.58 11.4934 1260.19 11.4934 1260.72 11.2244C1258.85 12.6954 1262.19 13.4974 1261.12 14.2994C1261.39 14.2994 1261.79 14.2994 1262.06 14.2994C1262.33 14.2994 1262.73 14.2994 1263 14.2994C1262.59 13.6314 1262.73 13.0974 1263.93 13.6314C1263.27 13.2304 1264.2 11.4924 1263 11.3594C1263.13 10.8234 1265 11.2244 1264.33 11.7594C1265.67 11.6244 1265.94 10.9564 1267.01 10.5564C1267.81 11.4924 1270.35 10.2874 1270.62 10.2874C1269.42 8.81545 1261.66 10.8214 1259.25 9.75345C1262.46 8.14845 1255.24 7.88045 1250.16 8.28145C1251.63 8.94945 1248.96 8.54845 1248.82 8.94945C1248.15 8.81745 1248.69 8.54845 1249.22 8.54845C1247.59 8.11345 1245.44 8.81245 1243.61 8.59145C1243.61 8.62545 1243.61 8.65845 1243.6 8.69545C1242.94 8.56045 1241.86 8.69545 1241.73 8.42545C1242.4 8.29145 1242 7.89245 1241.73 7.75745C1242.39 7.89045 1243.43 7.76345 1243.59 8.01545C1243.64 8.01545 1243.69 8.01545 1243.74 8.01545C1243.47 7.21245 1241.87 7.07845 1239.59 7.21245C1239.46 7.61245 1239.99 7.61245 1239.99 7.88045C1236.65 7.88045 1233.04 8.14845 1230.5 8.54845C1230.5 8.95045 1231.17 9.08445 1230.9 9.75345C1231.97 10.0194 1233.44 10.1534 1233.57 10.9564C1232.77 11.4904 1230.63 11.3564 1228.63 11.3564C1226.89 10.9564 1227.96 10.5554 1226.76 10.2874C1225.69 10.2874 1224.48 10.2874 1224.48 10.6884C1223.82 10.1534 1222.48 10.0204 1221.81 9.61945C1221.27 10.6884 1219.27 11.2234 1217.26 11.6254C1216.99 12.2944 1218.06 12.2944 1217.26 12.6924C1216.86 12.4264 1215.66 12.0244 1215.92 12.9614C1214.18 12.4274 1210.71 13.6314 1208.7 12.2934C1208.43 12.4274 1208.04 12.4274 1207.77 12.5604C1204.96 12.1624 1201.08 12.1624 1199.21 12.5604C1197.87 12.5604 1197.33 12.1614 1196.94 11.7594C1193.46 12.1594 1191.59 11.3574 1191.45 10.4204C1192.66 10.2874 1193.99 10.1534 1194.26 9.61945C1194.8 9.75345 1194.53 10.0184 1194.66 10.2874C1196.8 9.75345 1197.47 9.75345 1200.14 9.48545C1197.33 10.1534 1201.35 10.0204 1202.42 10.1534C1202.82 9.48545 1200.94 9.75345 1200.54 9.48545C1203.48 9.61945 1206.16 8.81545 1210.04 9.08445C1210.04 8.68345 1211.24 8.81545 1210.97 8.28245C1212.04 8.28245 1213.11 8.28245 1214.18 8.28245C1214.45 9.88745 1221.4 8.28245 1221.4 9.48545C1223.95 8.54845 1228.76 8.81745 1228.63 6.81145C1228.23 6.81145 1228.36 7.07845 1228.23 7.21145C1221.94 6.27545 1217.53 7.47945 1212.31 8.01245C1211.64 7.87945 1210.84 7.74645 1210.98 7.21145C1208.17 7.61245 1203.62 7.07645 1201.88 8.28045C1200.14 8.28045 1196.8 7.87945 1197.73 8.54745C1194.39 8.41345 1195.2 8.41345 1191.32 8.28045C1193.06 7.21045 1185.7 8.01145 1184.5 8.54745C1185.16 7.74645 1182.89 8.14745 1180.35 7.74645C1180.35 8.01245 1180.35 8.28045 1180.35 8.54745C1179.15 8.41345 1179.95 8.28045 1179.95 7.74645C1178.21 7.61245 1177.14 7.21145 1175.8 7.07745C1175.4 7.34645 1174.87 7.61245 1174.47 7.74645C1173.13 7.74645 1172.73 7.34445 1172.19 6.94345C1174.2 7.47845 1176.47 7.07745 1176.74 5.33945C1175.4 5.20645 1173.93 5.07345 1174.07 4.27045C1173.27 4.27045 1172.6 4.27045 1171.79 4.27045C1171.39 4.93845 1172.6 4.93845 1172.73 5.33945C1171.66 5.07345 1171.26 4.67145 1170.86 4.27045C1165.91 4.40345 1164.71 4.80545 1160.43 3.60245C1154.95 5.60645 1145.72 4.00245 1140.91 5.20645C1140.51 4.80545 1139.7 4.67145 1138.23 4.80545C1137.43 5.87445 1135.29 6.54345 1138.23 7.21245C1141.84 6.54345 1147.06 5.74045 1150.94 5.33945C1152.14 5.47345 1151.33 5.60845 1151.33 6.14145C1152.14 6.14145 1153.61 6.41145 1153.21 5.74245C1154.01 5.87545 1153.61 6.41145 1155.08 6.14145C1154.95 6.41145 1154.68 6.54245 1154.68 6.81145C1155.32 6.92845 1155.63 6.88745 1155.83 6.79845C1154.01 7.78645 1152.77 8.44545 1149.33 8.68445C1149.2 8.81745 1149.33 8.81745 1149.46 8.95145C1148.3 8.95145 1147.14 8.95645 1146.09 9.07845C1144.23 8.42945 1141.97 9.34745 1140.24 8.01545C1139.44 8.28445 1137.83 8.68545 1138.9 9.22045C1135.29 8.55145 1130.07 8.55145 1128.47 8.15245C1126.73 8.82045 1124.06 9.08845 1122.99 10.1584C1121.65 10.2914 1122.45 9.48945 1120.72 9.75745C1120.72 9.08845 1122.72 9.08845 1120.32 9.08845C1120.59 8.95645 1121.12 8.82245 1121.66 8.68845C1119.92 8.15345 1119.51 9.75945 1118.44 10.1604C1116.84 10.2944 1115.9 9.62645 1114.83 10.1604C1115.37 9.89345 1115.37 9.62645 1114.83 9.35845C1116.04 9.08945 1116.84 9.89345 1116.71 9.08945C1115.91 9.08945 1115.24 9.08945 1114.43 9.08945C1116.04 8.42045 1117.78 7.21645 1121.25 7.48545C1121.66 7.08445 1122.59 6.95045 1122.19 6.28245C1124.6 6.28245 1132.22 6.28245 1133.96 4.80945C1131.69 5.21145 1131.55 4.40945 1129.41 5.07845C1128.48 5.07845 1130.08 4.54345 1129.01 4.27445C1128.21 4.94445 1127.41 4.27445 1126.34 4.27445C1121.26 4.40945 1116.71 5.07945 1112.3 6.14745C1112.96 7.08445 1110.56 6.54845 1110.96 7.35045C1110.83 7.21645 1109.49 5.61245 1110.56 5.34445C1108.42 5.61245 1105.48 4.94445 1102.4 5.61245C1101.73 4.41045 1097.45 5.21345 1095.18 5.21345C1095.18 4.94445 1095.72 4.94445 1096.12 4.94445C1089.7 4.27645 1076.59 6.14745 1067.1 4.54345C1066.57 3.60845 1068.17 3.60845 1068.97 3.34045C1067.23 1.60345 1063.76 2.40345 1060.82 1.73645C1056.27 2.67345 1051.46 0.667447 1045.44 0.933447C1045.3 0.400447 1047.18 0.800447 1046.78 0.131447C1045.71 -0.269553 1044.5 0.400447 1042.63 0.131447C1041.69 1.33445 1041.29 2.13745 1041.69 3.20645C1037.28 4.54245 1034.07 6.41545 1037.15 8.68845C1036.88 11.2294 1026.32 10.6944 1023.1 10.6944C1023.37 10.5614 1023.51 10.2944 1024.04 10.2944C1023.1 9.62445 1020.03 10.0264 1020.43 8.82145C1018.03 8.55345 1018.43 9.48945 1016.82 9.48945C1017.09 10.1604 1018.43 10.5614 1016.82 10.9624C1018.83 11.2304 1020.97 11.2304 1023.24 10.9624C1021.64 11.7654 1025.11 12.0334 1026.85 12.4354C1026.72 13.6374 1026.72 14.0394 1028.19 14.4394C1027.65 14.9764 1026.85 15.5094 1025.65 15.7774C1025.51 15.5094 1025.51 15.3774 1025.78 14.9764C1025.51 14.4414 1023.91 14.8424 1024.18 13.9064C1023.51 14.3064 1022.84 14.0414 1022.84 14.5764C1021.1 14.8424 1019.76 14.3064 1018.03 14.3064C1014.82 14.3064 1011.88 15.9114 1009.07 16.1784C1007.06 16.3124 1005.32 15.7794 1003.18 15.9114C1003.72 15.9114 1001.71 16.4464 1001.17 16.1784C1000.78 16.0454 1001.31 15.9114 1001.17 15.5114C998.902 15.2434 996.095 14.9764 994.088 15.5114C991.683 14.3064 990.479 16.9824 987.804 15.5114C987.938 14.5754 987.535 14.5754 987.804 13.9064C985.933 13.5064 983.925 14.5764 983.39 13.5064C982.722 13.9064 981.385 14.0424 981.519 12.8384C980.315 12.9714 980.315 13.1064 979.513 13.2384C978.978 12.3024 978.04 13.1054 977.372 12.4354C975.901 16.0454 968.681 12.4354 966.942 15.5114C967.744 15.5114 967.744 15.6444 969.483 16.1784C969.483 17.7844 967.344 17.6524 966.005 18.0514C965.605 18.0514 965.737 17.5174 965.737 17.2494C965.069 18.1854 963.732 17.3824 962.259 17.5174C957.981 17.7864 951.429 18.3204 946.748 18.9884C945.679 19.2574 944.608 19.1234 943.806 19.2574C943.407 19.2574 943.273 18.8564 943.138 18.8564C942.336 18.8564 939.931 19.3914 938.726 19.2574C937.789 20.1924 936.185 21.7984 933.243 21.6644C931.773 20.1934 930.704 20.0594 928.831 20.0594C929.768 19.9264 929.366 18.7224 930.168 19.3914C930.971 19.3914 929.768 18.4544 930.436 18.5884C930.035 17.6524 929.098 18.5884 929.098 17.3844C926.957 17.3844 926.289 17.5204 924.686 16.5824C924.551 16.8504 923.749 17.5204 924.417 17.7864C923.75 17.6524 923.483 18.9884 922.145 18.8554C922.413 19.5234 922.145 19.3904 922.413 19.9244C922.814 19.6554 923.083 19.2554 923.75 19.1214C924.151 19.2564 924.151 19.7904 924.151 20.3234C923.751 20.8584 922.01 20.1904 921.61 20.7254C921.477 20.0574 922.01 20.1904 921.878 19.6554C918.534 19.7904 911.581 21.6634 908.505 18.8544C906.767 18.7184 905.431 18.1844 903.958 17.6514C901.285 18.1844 900.349 18.8524 897.54 18.3194C897.54 18.0524 897.674 17.9184 897.808 17.9184C896.336 18.5874 895.267 16.9814 892.459 17.2504C892.192 17.1164 891.39 16.4464 891.791 16.4464C890.72 15.7784 888.58 14.8424 888.046 16.7154C886.709 16.8494 886.442 16.7154 885.105 17.1164C884.836 16.0454 885.64 16.0454 885.773 15.2444C886.308 15.6434 886.842 14.9754 887.111 15.6434C887.645 15.6434 887.245 14.8424 887.378 14.5754C884.169 14.9754 881.36 14.4404 878.151 14.4404C877.213 14.7094 875.61 15.1084 874.406 15.1084C874.273 15.1084 874.006 14.7094 874.006 14.7094C872.401 14.9764 871.733 15.9124 869.592 16.3134C867.186 16.7134 864.511 16.7134 862.238 17.9174C862.105 17.7834 862.105 17.7834 861.97 17.7834V15.7774C860.765 15.9094 859.429 16.0434 858.092 16.1764C857.29 16.1764 857.825 15.5084 857.156 15.3744C855.819 16.0424 854.082 15.9084 852.342 15.7764C852.21 14.9714 849.534 14.8384 848.465 13.9014C848.331 13.9014 848.331 13.9014 848.198 13.9014C847.797 13.2334 849.268 13.5034 850.07 13.5034C850.07 12.9684 850.872 13.1014 850.07 12.6994C851.542 12.5654 852.21 12.8344 851.943 13.5034C855.286 13.5034 857.693 13.7694 860.634 13.7694C860.634 13.3714 860.634 13.1034 860.634 12.7014C855.285 12.1674 848.733 12.4334 846.593 11.2304C845.656 11.0974 845.923 11.6314 845.255 11.6314C842.848 10.8274 840.575 10.8274 838.436 9.75745C836.832 10.1594 833.488 9.75745 832.954 10.5604C831.348 10.6954 832.419 9.62345 830.681 9.89245C830.414 10.2934 830.949 10.4264 831.081 10.6954C827.739 10.5604 824.663 11.6314 818.78 11.3634C816.774 10.2944 810.087 10.1604 807.413 10.6954C806.076 10.6954 805.541 10.2934 805.14 9.89245C800.594 10.2934 798.722 8.95645 800.194 7.48645C795.781 7.21745 792.706 8.82245 788.827 8.15445C788.827 7.75345 788.827 7.35145 788.827 6.95145C786.956 7.35145 785.753 6.81645 783.346 6.95145C782.944 7.21845 782.676 7.61945 782.008 7.75345C777.595 7.08445 766.363 7.21845 757.938 7.08445C751.92 6.95145 746.972 8.02245 743.897 9.09045C744.166 10.1604 743.763 10.5634 744.834 11.0984C743.097 11.2314 740.821 10.9634 739.352 11.7664C738.816 11.6314 739.084 11.3644 738.951 11.0984C733.068 12.1674 732.131 8.95745 726.65 9.49345C728.254 8.42445 723.305 9.62745 723.039 8.42445C717.824 9.22645 711.808 8.95845 705.789 8.82545C704.185 7.35445 702.713 5.75045 703.248 3.74445C702.311 2.80945 700.576 3.47745 699.371 2.67445C699.236 2.13945 700.439 2.67445 700.04 2.00545C699.236 2.13845 698.167 0.801447 697.23 0.401447C695.358 0.934447 694.021 0.934447 692.683 0.132447C688.538 0.533447 686.131 3.07445 682.253 4.01145C681.719 4.01145 682.521 3.61045 682.253 3.20845C679.178 3.87845 676.235 3.74345 674.231 4.67945C673.563 3.74345 672.76 5.21445 671.959 5.34845C670.355 4.28045 667.68 5.08145 666.609 4.28045C665.406 5.21545 663.801 3.87845 663.133 5.34845C662.999 4.54545 661.929 4.67945 660.993 4.67945C661.261 6.28545 658.72 4.01145 658.72 5.48345C658.318 4.28045 656.714 5.48345 656.58 4.81345C655.376 5.48345 652.434 4.01145 651.498 5.21445C650.83 5.08145 649.493 4.41345 649.358 5.48345C648.556 5.48345 648.823 4.67945 648.02 4.81345C646.682 5.34845 645.614 5.48345 643.875 5.21445C643.474 5.34845 643.875 5.34845 643.875 5.61345C642.938 5.21445 642.806 5.88345 641.869 5.88345C641.468 5.88345 641.734 5.21445 641.468 5.08045C640.265 5.48045 639.864 5.21445 638.927 5.74945C637.056 4.67845 635.05 6.28445 633.446 5.48045C632.776 5.48045 632.642 5.88145 632.242 6.14845C631.974 6.01545 632.108 5.88145 632.242 5.88145C630.37 4.94445 627.963 5.88145 625.823 5.88145C624.487 5.74745 623.282 5.21245 621.946 5.21245C620.342 5.34545 618.067 6.14845 616.464 6.28245C615.394 6.41545 614.057 6.01445 612.586 5.88145C611.248 5.74745 610.045 6.68345 608.841 6.68345C608.306 6.68345 606.969 6.41545 605.899 6.41545C604.697 6.41545 603.759 6.41545 603.358 5.74745C602.289 7.48545 599.613 4.94445 598.945 6.54845C597.876 6.81645 597.742 6.14845 597.074 6.14845C597.074 6.54845 596.806 6.54845 596.806 6.81645C596.672 6.41745 596.004 6.41745 595.202 6.41745C595.468 7.22045 594.667 6.95245 594.8 7.62145C594.532 7.48845 594.399 7.22045 594.132 7.22045C594.4 6.81945 594.266 6.41845 595.068 6.55145C594.935 6.28445 594.535 6.28445 594.669 5.88345C592.396 8.02445 589.721 6.55145 588.384 6.15145C585.176 6.55145 582.769 7.08845 578.757 6.15145C578.757 6.55145 578.488 6.55145 578.488 6.81945C575.949 6.81945 572.338 6.55145 569.129 7.22045C568.326 7.35445 567.525 7.35445 566.722 7.48945C566.589 7.35445 566.589 7.08845 566.323 6.95445C565.788 7.22245 564.316 6.81945 564.45 7.75645C561.775 7.62345 556.428 6.95445 553.618 7.75645C553.485 7.75645 553.352 7.75645 553.218 7.75645C547.2 7.08845 541.183 7.08845 535.969 8.02545C535.031 6.95545 533.561 7.75645 532.224 7.22245C532.224 7.49045 532.224 7.62345 532.224 7.89045C529.682 7.75645 527.141 7.75645 525.536 7.22245C525.402 7.35545 525.402 7.35545 525.268 7.49045C525.134 7.35545 525 7.35545 524.733 7.35545C524.332 7.62545 523.797 7.89045 523.396 8.02545C522.058 8.02545 521.659 7.62445 521.124 7.22245C523.129 7.75745 525.402 7.35545 525.671 5.61745C524.333 5.48645 522.861 5.35145 522.995 4.54945C522.194 4.54945 521.525 4.54945 520.723 4.54945C520.322 5.21845 521.526 5.21845 521.66 5.61745C520.589 5.35145 520.187 4.94945 519.787 4.54945C514.839 4.68445 513.636 5.08445 509.356 3.88045C503.875 5.88645 494.647 4.28145 489.834 5.48445C489.432 5.08545 488.631 4.95145 487.158 5.08545C486.357 6.15445 484.218 6.82245 487.158 7.49245C490.769 6.82245 495.984 6.01945 499.862 5.61945C501.065 5.75445 500.263 5.88745 500.263 6.42245C501.065 6.42245 502.536 6.69045 502.135 6.02245C502.938 6.15545 502.536 6.69045 504.007 6.42245C503.875 6.69045 503.606 6.82245 503.606 7.09045C504.244 7.20545 504.549 7.16745 504.752 7.08045C502.931 8.06645 501.698 8.72645 498.259 8.96245C498.259 9.09545 498.259 9.09545 498.259 9.09545C497.724 9.09545 497.322 9.09545 496.789 9.09545C496.254 9.22945 495.585 9.36445 494.781 9.49745C494.916 9.36345 494.916 9.36345 495.05 9.36345C493.178 8.69545 490.904 9.63145 489.166 8.29445C488.361 8.56145 486.758 8.96345 487.826 9.49745C484.2 8.82745 478.984 8.82745 477.38 8.42645C475.643 9.09345 472.968 9.36345 471.899 10.4314C470.563 10.5664 471.364 9.76345 469.627 10.0314C469.627 9.36345 471.632 9.36345 469.226 9.36345C469.494 9.23045 470.029 9.09545 470.564 8.96345C468.826 8.42845 468.424 10.0344 467.355 10.4344C465.751 10.5694 464.814 9.90145 463.745 10.4344C464.279 10.1674 464.279 9.90145 463.745 9.63245C464.949 9.36345 465.751 10.1674 465.617 9.36345C464.815 9.36345 464.146 9.36345 463.344 9.36345C464.949 8.69745 466.686 7.49245 470.163 7.75945C470.565 7.35745 471.5 7.22445 471.1 6.55645C473.507 6.55645 481.128 6.55645 482.868 5.08445C480.595 5.48545 480.462 4.68345 478.322 5.35145C477.384 5.35145 478.99 4.81845 477.921 4.54845C477.118 5.21845 476.316 4.54845 475.246 4.54845C470.164 4.68345 465.618 5.35345 461.205 6.42245C461.873 7.35745 459.467 6.82145 459.867 7.62545C459.734 7.49145 458.397 5.88745 459.467 5.61945C457.328 5.88745 454.386 5.21845 451.31 5.88745C450.642 4.68545 446.363 5.48645 444.089 5.48645C444.089 5.21845 444.625 5.21845 445.027 5.21845C438.609 4.54945 425.503 6.42345 416.008 4.81845C415.474 3.88245 417.079 3.88245 417.881 3.61545C416.144 1.87745 412.667 2.67745 409.725 2.01045C405.179 2.94845 400.366 0.940447 394.348 1.20845C394.215 0.674447 396.087 1.07445 395.686 0.406447C394.615 0.00544673 393.412 0.674447 391.54 0.406447C390.604 1.60945 390.203 2.41245 390.604 3.48045C386.191 4.81645 382.982 6.68945 386.057 8.96145C385.79 11.5024 375.225 10.9674 372.016 10.9674C372.283 10.8354 372.416 10.5684 372.952 10.5684C372.015 9.89845 368.94 10.2994 369.341 9.09545C366.935 8.82845 367.335 9.76545 365.731 9.76545C365.998 10.4334 367.335 10.8354 365.731 11.2364C367.736 11.5044 369.876 11.5044 372.149 11.2364C370.545 12.0394 374.021 12.3084 375.759 12.7084C375.625 13.9114 375.625 14.3124 377.097 14.7144C376.655 15.1564 376.016 15.5894 375.134 15.8794C375.333 15.9834 375.519 16.0844 375.622 16.1864H375.488C375.39 16.0874 375.232 15.9914 375.095 15.8914C374.92 15.9484 374.752 16.0084 374.556 16.0514C374.422 15.7844 374.422 15.6514 374.689 15.2504C374.422 14.7154 372.818 15.1154 373.085 14.1804C372.415 14.5814 371.747 14.3154 371.747 14.8504C370.009 15.1164 368.671 14.5814 366.934 14.5814C364.526 14.5814 362.387 15.3854 360.247 15.9194C359.446 15.7864 358.776 15.5184 358.107 14.9824C355.433 15.3834 351.287 14.7144 349.549 15.6504C348.479 15.5174 347.143 15.3834 345.938 15.3834C345.672 15.2504 345.536 15.1144 345.403 14.9824C342.327 15.5174 339.252 14.9824 336.711 15.1154C336.577 14.7164 336.444 14.4474 336.711 14.0474C334.839 13.6474 332.833 14.7164 332.298 13.6474C331.63 14.0474 330.292 14.1824 330.426 12.9794C329.088 13.1124 329.088 13.2464 328.286 13.3794C327.75 12.4434 326.815 13.2454 326.146 12.5774C325.745 13.9144 324.274 14.3144 322.67 14.3144C322.67 14.3144 322.67 14.3144 322.536 14.3144C320.129 14.4494 317.456 13.9134 316.251 15.2524C309.298 15.2524 302.611 14.9824 294.99 15.7864C294.054 15.6524 295.659 15.3854 294.589 15.1174C291.515 15.1174 288.84 14.7174 286.433 15.7864C286.835 15.3854 283.491 15.1174 283.224 15.7864C281.619 14.7174 278.677 15.6524 276.003 15.1174C276.003 15.3854 276.003 15.6524 276.003 15.9194C271.857 14.9824 266.642 14.9824 261.962 14.7164C261.829 15.1174 262.496 15.1174 262.363 15.5184C259.02 14.8504 248.724 14.7174 247.788 15.7874C246.583 15.7874 246.583 15.2534 245.915 14.9834C244.043 14.7174 244.711 15.5184 244.043 15.7874C243.508 15.6514 243.776 15.5184 244.043 15.5184C241.636 15.2524 238.961 15.1184 236.287 15.1184C236.287 14.8504 236.154 14.4504 236.287 14.3154C233.078 14.7164 230.269 14.1814 227.06 14.1814C226.124 14.4504 224.52 14.8504 223.316 14.8504C223.182 14.8504 222.915 14.4504 222.915 14.4504C221.31 14.7174 220.642 15.6534 218.502 16.0544C216.095 16.4554 213.42 16.4554 211.148 17.6594C210.479 17.5244 209.81 17.3904 209.944 16.4554C207.136 16.1864 203.926 16.3214 200.985 16.1864C202.053 14.5824 198.577 14.5824 197.24 13.5124C197.106 13.5124 197.106 13.5124 196.973 13.5124C196.943 13.4624 196.943 13.4274 196.933 13.3884C195.908 13.4314 194.999 13.5794 194.296 13.1104C195 13.1104 195.824 13.2144 196.914 13.3304C196.895 12.9054 198.131 13.1124 198.845 13.1124C198.845 12.5784 199.648 12.7104 198.845 12.3094C200.317 12.1754 200.986 12.4444 200.717 13.1124C204.061 13.1124 206.468 13.3804 209.41 13.3804C209.41 12.9804 209.41 12.7114 209.41 12.3124C204.061 11.7774 197.509 12.0434 195.369 10.8404C194.433 10.7064 194.7 11.2394 194.032 11.2394C191.626 10.4364 189.352 10.4364 187.212 9.36845C185.609 9.76845 182.265 9.36845 181.73 10.1704C180.126 10.3044 181.196 9.23345 179.459 9.50245C179.191 9.90345 179.725 10.0364 179.859 10.3044C176.516 10.1704 173.441 11.2404 167.556 10.9724C165.55 9.90445 158.864 9.76945 156.19 10.3044C154.854 10.3044 154.318 9.90445 153.917 9.50245C149.371 9.90345 147.499 8.56745 148.97 7.09545C144.556 6.82745 141.48 8.43245 137.603 7.76345C137.603 7.36345 137.603 6.96045 137.603 6.56045C135.732 6.96045 134.529 6.42645 132.122 6.56045C131.72 6.82845 131.452 7.22845 130.784 7.36345C126.371 6.69345 115.139 6.82845 106.714 6.69345C100.696 6.56045 95.749 7.63145 92.673 8.70145C92.942 9.76945 92.54 10.1724 93.61 10.7064C91.872 10.8404 89.599 10.5724 88.128 11.3754C87.594 11.2404 87.861 10.9744 87.727 10.7064C81.844 11.7774 80.907 8.56645 75.425 9.10245C77.03 8.03445 72.083 9.23745 71.815 8.03445C61.515 9.50145 48.009 7.22745 36.91 8.83245C36.107 10.4364 33.834 11.3734 31.025 12.0414C30.09 11.9074 31.561 11.6404 30.625 11.3734C27.014 10.8384 23.939 11.6404 21.532 10.5694C17.654 10.5694 9.363 12.5774 6.956 10.8384C4.951 10.9724 2.944 10.8384 0.804 10.7044V13.5134C1.205 13.6464 1.607 13.7794 2.008 13.9134C3.747 13.9134 5.217 13.2454 4.281 12.8444C5.618 12.8444 6.554 13.1134 6.955 13.6484C8.694 13.2474 8.56 13.3804 8.827 13.9154C9.897 13.9154 11.903 12.4434 12.037 13.9154C12.973 13.5144 15.379 13.6484 16.182 13.1134C17.654 13.1134 16.717 14.4494 18.054 13.7814C17.92 15.2544 13.775 14.7184 13.908 15.6524C12.036 15.9224 8.292 15.1194 10.297 14.9844C8.959 14.1834 4.68 16.1894 4.413 14.7174C2.675 14.8514 0.135 15.6544 2.14 16.1894C1.738 16.3224 1.337 16.4574 0.937 16.4574V22.2064C2.408 22.3404 4.145 22.3404 5.75 22.4754C5.505 22.7184 5.491 22.7444 5.592 22.8484H0V100.004H1920V12.6064C1919.42 12.5164 1918.87 12.3854 1918.36 12.1574C1915.95 12.1574 1911.54 12.9604 1908.2 13.0944C1908.2 12.5604 1908.06 12.1574 1907.51 12.1474ZM37.978 13.9154C37.308 13.9154 38.779 14.8534 36.64 14.7184C36.506 14.1834 33.563 14.1834 32.494 13.5144C33.832 13.1134 35.303 13.3814 36.105 13.1134C36.372 13.6484 35.168 13.5154 35.168 13.9164C35.704 13.9164 35.704 14.1844 36.105 14.1844C36.639 14.1834 37.709 13.5144 37.978 13.9154ZM80.633 22.6064L80.499 22.7394H77.424C77.825 22.6064 78.092 22.4734 78.359 22.2054C78.226 23.1424 80.099 22.2054 80.633 22.6064ZM114.197 9.23545C113.93 10.7064 108.58 11.2424 106.976 9.90545C107.644 9.90545 107.377 9.37045 107.377 9.10245C109.784 8.70045 112.727 8.16645 114.197 9.23545ZM163.139 15.2524C163.005 16.3214 162.068 16.8564 163.54 17.2574C161.802 17.5254 162.204 16.8574 160.865 16.8574C159.395 18.0604 153.109 18.3284 150.436 17.6604C149.365 15.2524 159.127 13.3804 163.139 15.2524ZM172.631 15.7874C172.631 16.0544 172.497 16.3214 172.497 16.5894C171.161 17.3924 169.556 17.9264 166.748 17.9264C167.015 16.8574 166.346 17.3924 165.41 17.1254C166.346 16.0544 164.474 15.7874 163.538 15.1184C165.543 15.2524 166.079 14.7174 168.085 14.8504C168.353 15.1184 168.62 15.3854 169.021 15.5184C169.154 15.2524 169.556 15.1184 170.358 15.1184C170.225 16.0544 171.428 15.2534 172.231 15.3864C172.231 15.6514 172.365 15.7874 172.631 15.7874ZM236.018 14.8524C235.615 14.8524 235.214 14.8524 234.813 14.8524V14.7174C235.348 14.9834 235.749 14.5844 236.018 14.8524ZM436.732 9.63545C435.26 9.50245 434.458 9.90445 435.394 10.3044C431.651 10.3044 428.707 11.1074 425.901 10.9724C426.435 11.2404 426.3 11.6404 426.3 12.1764C424.161 12.0414 425.632 12.9784 424.963 12.9784C424.696 12.7114 424.429 13.1134 424.028 13.2474C423.224 12.5784 422.556 13.1134 421.352 13.2474C420.416 12.7114 420.15 12.0424 418.678 11.7754C419.882 11.7754 420.15 12.0414 420.55 11.5064C419.482 11.5064 419.615 11.1054 418.278 11.2374C416.272 12.5754 413.33 10.8354 411.859 12.3074C412.127 12.5734 412.393 12.8414 412.259 13.3754C407.178 13.1074 400.091 13.5094 395.41 14.1784C396.747 13.6434 394.474 13.6434 394.474 13.5094C395.009 13.5094 394.741 13.2424 394.474 13.1084C398.351 12.4404 399.823 9.90145 404.503 10.4344C404.235 9.76645 411.456 9.90145 412.66 10.7034C413.06 10.1694 414.666 9.23345 415.333 9.63445C414.933 9.63445 414.799 10.0354 415.333 10.0354C417.071 10.0354 417.74 9.63345 418.543 9.23145C417.608 8.96345 416.403 9.36645 416.27 8.42945C418.811 7.89545 420.549 8.29545 423.09 7.76145C423.224 8.96445 422.288 8.02845 421.753 9.23145C424.828 8.83245 427.367 9.63445 429.909 8.16545C430.978 8.16545 430.845 8.56545 432.181 8.43145C432.181 8.70145 431.914 9.23445 432.583 9.23445C433.385 9.10145 432.583 8.16745 433.519 8.16745C434.188 8.70145 435.926 8.96945 435.792 9.37045C436.195 9.36945 436.73 9.36945 436.732 9.63545ZM453.446 11.3744C454.917 11.5084 455.318 11.2414 455.718 11.6424C455.451 11.6424 455.184 11.7774 455.318 12.0434C455.585 12.0434 455.853 12.3124 455.318 12.3124C455.183 11.9104 454.114 12.0434 453.445 12.0434C453.445 11.7764 453.445 11.6424 453.446 11.3744ZM453.446 8.83445C454.514 8.83445 455.452 8.43545 455.718 9.10345C454.783 9.10345 454.915 9.63645 453.846 9.63645C453.98 9.23345 453.445 9.23345 453.446 8.83445ZM450.37 12.3104C451.574 12.4454 450.771 11.5074 451.708 11.5074C451.306 12.1774 453.579 11.7774 453.178 12.4454C452.778 12.8444 452.51 13.1134 451.306 13.1134C451.841 12.4444 450.504 12.5784 450.37 12.3104ZM446.76 7.63145C447.295 7.63145 447.427 7.89845 447.697 8.03045C445.824 8.03045 445.02 8.03045 445.824 8.70045C443.683 8.96845 444.754 7.89745 443.951 7.63145C445.02 7.63145 446.091 7.49845 446.626 7.23045C446.76 7.09645 446.76 7.09645 447.162 6.96245C447.295 7.36245 447.028 7.49745 446.76 7.63145ZM455.049 7.76445C455.584 7.76445 456.119 7.76445 455.986 8.16545C453.446 8.16545 452.109 8.56545 449.568 8.96745C448.764 8.56645 447.829 8.16545 447.695 7.36345C449.033 6.96345 450.904 6.16045 452.242 6.96345C451.038 6.29545 455.718 5.62645 457.188 6.16045C456.254 6.29545 457.323 7.09745 458.527 6.82945C459.063 8.29845 455.718 7.63145 455.049 7.76445ZM505.465 6.69045C505.266 6.79545 505.078 6.89745 504.895 6.99645C505.055 6.88545 505.17 6.74945 505.465 6.69045ZM519.235 6.96145C518.699 6.96145 518.298 7.36245 517.896 6.96145C519.502 6.69245 517.496 6.56045 517.496 6.29345C518.166 6.29345 518.299 6.02645 518.835 5.89245C518.701 6.29345 518.968 6.69445 519.235 6.96145ZM640.921 17.1254C639.985 16.9914 641.188 17.5244 640.52 17.5244C640.386 17.1254 640.12 18.1924 639.584 18.1924C639.852 18.3274 639.852 18.5934 639.852 18.8624C640.386 18.3264 640.253 19.1284 640.654 19.2624C640.386 19.3974 640.254 19.3974 639.986 19.5304C639.317 19.3974 638.649 19.3974 638.381 19.6644V18.7274C638.651 18.8624 638.917 18.8624 639.318 18.3274C639.318 17.9264 638.918 17.7924 638.918 17.2584C639.717 17.2584 640.387 16.8564 640.921 17.1254ZM641.056 18.1944C641.457 18.4624 642.393 18.4624 643.063 18.5944C642.527 18.5944 642.125 18.7294 641.59 18.7294C641.457 18.8624 641.323 18.9974 641.056 19.1294C641.056 18.5954 640.654 18.4624 641.056 18.1944ZM643.329 17.2574C642.927 17.3924 641.991 17.1254 641.991 17.5254C642.124 17.5254 642.259 17.7934 641.991 17.7934C641.991 17.3934 641.189 17.5254 641.323 17.1264C642.393 17.1254 642.793 16.7244 643.329 17.2574ZM766.217 9.10245C765.949 10.5714 760.602 11.1084 758.996 9.77045C759.665 9.77045 759.398 9.23545 759.398 8.96745C761.805 8.56545 764.747 8.03045 766.217 9.10245ZM810.611 14.3174C809.674 14.4514 808.471 14.7174 807.402 14.9854C807.134 14.8524 807.001 14.8524 806.734 14.7174C808.071 14.4504 809.409 14.3154 810.611 14.3174ZM846.314 13.1124C847.118 13.1124 848.053 13.1124 849.39 13.3804C848.188 13.3804 847.118 13.6474 846.314 13.1124ZM928.153 19.9334C927.751 19.9334 926.281 20.4674 926.281 19.6654C926.682 19.2654 927.751 19.6654 928.153 19.9334ZM949.145 21.6724C948.343 21.5384 947.943 21.9414 948.477 22.3414C947.541 22.2064 947.943 22.6074 947.809 22.8754H947.14C947.007 22.7394 946.873 22.7394 946.74 22.7394C947.141 21.5374 945.804 21.9384 946.072 20.7354C947.543 21.0024 948.879 20.3334 949.145 21.6724ZM975.49 19.5304C973.217 20.0654 970.14 21.1364 969.205 19.1304C971.211 18.0604 974.688 18.1924 975.49 19.5304ZM1027.64 16.0534C1027.51 16.0534 1027.51 16.0534 1027.51 16.1874C1027.51 16.0534 1027.24 15.9214 1026.97 15.6524C1027.24 15.7874 1027.51 15.9214 1027.64 16.0534ZM1045.56 18.0604C1043.95 19.9334 1039.81 21.1364 1033.93 20.7364C1032.19 19.9334 1033.52 18.5954 1033.66 17.3924C1037.27 16.8564 1042.48 17.5244 1045.56 18.0604ZM1088.75 9.50145C1087.28 9.36745 1086.48 9.76945 1087.42 10.1694C1083.67 10.1694 1080.73 10.9714 1077.92 10.8374C1078.46 11.1054 1078.32 11.5064 1078.32 12.0414C1076.18 11.9074 1077.65 12.8444 1076.98 12.8444C1076.72 12.5774 1076.45 12.9784 1076.05 13.1114C1075.25 12.4434 1074.58 12.9784 1073.37 13.1114C1072.44 12.5774 1072.17 11.9084 1070.7 11.6394C1071.9 11.6394 1072.17 11.9084 1072.57 11.3724C1071.5 11.3724 1071.64 10.9704 1070.3 11.1044C1068.29 12.4404 1065.35 10.7024 1063.88 12.1734C1064.28 12.3074 1064.42 12.5744 1064.42 12.9754C1063.88 12.9754 1063.35 13.1084 1062.81 13.1084C1059.6 13.1084 1055.72 13.2424 1052.38 13.5094C1052.11 13.3764 1051.85 13.2424 1051.58 13.1084C1049.97 13.1084 1048.37 13.1084 1046.63 12.9754C1050.38 12.3074 1051.85 9.90145 1056.53 10.3004C1056.26 9.63245 1063.48 9.76645 1064.68 10.5694C1065.08 10.0354 1066.69 9.09845 1067.36 9.50045C1066.96 9.50045 1066.82 9.90145 1067.36 9.90145C1069.09 9.90145 1069.76 9.49945 1070.57 9.09845C1069.63 8.82945 1068.43 9.23145 1068.29 8.29545C1070.83 7.76145 1072.57 8.16245 1075.11 7.62745C1075.25 8.83045 1074.31 7.89545 1073.78 9.09845C1076.85 8.69845 1079.39 9.50145 1081.93 8.03045C1083 8.03045 1082.87 8.43045 1084.2 8.29745C1084.2 8.56645 1083.94 9.10145 1084.6 9.10145C1085.41 8.96745 1084.6 8.03145 1085.54 8.03145C1086.21 8.56645 1087.95 8.83545 1087.81 9.23445C1088.22 9.23345 1088.75 9.23345 1088.75 9.50145ZM1105.6 8.70045C1106.67 8.70045 1107.61 8.30045 1107.87 8.96845C1106.94 9.10345 1106.94 9.50345 1106 9.50345C1106.14 9.10245 1105.6 9.10245 1105.6 8.70045ZM1098.91 7.63145C1099.45 7.63145 1099.58 7.89845 1099.85 8.03045C1097.98 8.03045 1097.18 8.03045 1097.98 8.70045C1095.84 8.96845 1096.91 7.89745 1096.11 7.63145C1097.17 7.63145 1098.24 7.49845 1098.78 7.23045C1098.78 7.09645 1098.78 6.96245 1099.31 6.96245C1099.45 7.36245 1099.18 7.49745 1098.91 7.63145ZM1107.07 7.76445C1107.6 7.76445 1108.14 7.76445 1108.01 8.16545C1105.47 8.16545 1104.13 8.56545 1101.59 8.96745C1100.79 8.56645 1099.85 8.16545 1099.71 7.36345C1101.05 6.96345 1102.92 6.16045 1104.26 6.96345C1103.06 6.29545 1107.74 5.62645 1109.21 6.16045C1108.27 6.29545 1109.34 7.09745 1110.55 6.82945C1111.08 8.16645 1107.74 7.49745 1107.07 7.76445ZM1156.55 6.41845C1156.35 6.52445 1156.16 6.62645 1155.97 6.72845C1156.14 6.61445 1156.25 6.47745 1156.55 6.41845ZM1171.26 6.82745C1170.72 6.82745 1170.32 7.22745 1169.92 6.82745C1171.52 6.55945 1169.52 6.42745 1169.52 6.15745C1170.18 6.15745 1170.32 5.89345 1170.86 5.75845C1170.72 6.29345 1170.99 6.56045 1171.26 6.82745ZM1188.37 9.50245C1188.11 9.50245 1187.84 9.63645 1187.57 9.63645C1187.03 9.10145 1186.23 9.23445 1185.97 8.83345C1187.17 8.83345 1187.84 9.10245 1188.37 9.50245ZM1250.95 12.4444C1248.95 12.7124 1248.28 13.3804 1245.47 13.1124C1244.8 12.4424 1245.74 12.3094 1245.07 11.9074C1246.41 11.7744 1246.01 12.4424 1247.34 12.3094C1246.68 11.5054 1248.82 12.1754 1248.68 11.6394C1247.88 11.5054 1248.55 11.3724 1249.08 11.6394C1249.88 11.2394 1248.68 10.1704 1249.48 10.5714C1250.42 11.2394 1250.95 10.1714 1251.76 10.1714C1251.89 10.5714 1252.42 10.1714 1252.82 10.4394C1251.22 10.9744 1251.62 11.3744 1250.95 12.4444ZM1335.2 15.2534C1334.53 15.2534 1336 16.1894 1333.86 16.0544C1333.73 15.5194 1330.78 15.5194 1329.71 14.8514C1331.05 14.4514 1332.52 14.7184 1333.33 14.4514C1333.59 14.9844 1332.39 14.8534 1332.39 15.2534C1332.92 15.2534 1332.92 15.5204 1333.33 15.5204C1333.86 15.5184 1334.93 14.8524 1335.2 15.2534ZM1411.42 10.7064C1411.28 10.9744 1411.15 11.2414 1410.75 11.3754C1410.62 11.3754 1410.48 11.3754 1410.35 11.3754C1410.48 11.3754 1410.48 11.5084 1410.48 11.5084C1408.88 12.1774 1405.4 12.1774 1404.2 11.2414C1404.87 11.2414 1404.6 10.7064 1404.6 10.4384C1407.01 10.0374 1409.95 9.36945 1411.42 10.7064ZM1477.21 11.6394C1473.87 11.5064 1470.79 12.5774 1464.91 12.3104C1464.24 12.0404 1463.3 11.7754 1462.1 11.6394C1462.5 11.5074 1462.77 11.3734 1463.04 11.2404C1462.1 10.9714 1460.9 11.3744 1460.76 10.4374C1463.3 9.90445 1465.04 10.3034 1467.58 9.76945C1467.72 10.9724 1466.78 10.0384 1466.24 11.2404C1469.32 10.8404 1471.86 11.6424 1474.4 10.1724C1475.47 10.0384 1475.34 10.5724 1476.67 10.3044C1476.81 10.5734 1476.67 10.8394 1476.81 10.9734C1476.67 11.2394 1477.07 11.3734 1477.21 11.6394ZM1479.88 11.1064C1479.48 11.1064 1479.21 11.2394 1479.08 11.5064C1477.74 11.5064 1478.14 10.9734 1477.48 10.8384C1477.48 10.5704 1477.34 10.1704 1478.01 10.3044C1478.41 10.7054 1479.35 10.8394 1479.88 11.1064ZM1492.19 10.1714C1490.31 10.1714 1489.51 10.1714 1490.31 10.8394C1488.17 11.1094 1489.24 10.0384 1488.44 9.77145C1489.51 9.77145 1490.58 9.63745 1491.12 9.37145C1491.25 9.23645 1491.25 9.10345 1491.65 9.10345C1491.79 9.50345 1491.52 9.63645 1491.25 9.77145C1491.79 9.77045 1491.92 10.0374 1492.19 10.1714ZM1497.94 13.7804C1498.07 13.7804 1498.07 13.9154 1498.07 14.0494H1497.94C1497.94 13.9154 1497.94 13.9154 1497.94 13.7804ZM1497.53 14.5854C1497.13 14.8534 1496.86 15.2534 1495.66 15.1194C1496.06 14.4514 1494.86 14.5854 1494.73 14.3174C1495.12 14.3174 1495.26 14.3174 1495.39 14.1824C1495.66 14.1824 1495.93 14.1824 1496.19 14.1824C1496.19 14.0484 1496.33 14.0484 1496.33 13.9144C1496.86 14.0494 1497.94 14.0494 1497.53 14.5854ZM1500.21 11.1064C1499.27 11.2414 1499.41 11.6414 1498.34 11.6414C1498.47 11.2394 1497.94 11.2394 1497.94 10.8384C1499.01 10.8394 1499.94 10.4384 1500.21 11.1064ZM1548.35 8.15345C1548.15 8.25845 1547.96 8.36045 1547.78 8.46045C1547.94 8.34945 1548.05 8.21245 1548.35 8.15345ZM1563.72 8.96745C1563.19 8.96745 1562.79 9.36845 1562.39 8.96745C1563.99 8.70045 1561.99 8.56645 1561.99 8.29945C1562.66 8.29945 1562.79 8.03245 1563.32 7.89845C1563.19 8.43345 1563.46 8.70045 1563.72 8.96745ZM1578.44 10.8414C1579.91 10.9724 1580.84 11.3744 1581.11 11.9094C1580.84 11.9094 1580.44 11.9094 1580.17 11.9094C1579.77 11.2394 1578.57 11.5084 1578.44 10.8414ZM1645.3 12.5784C1643.69 13.1124 1644.09 13.5154 1643.42 14.5844C1641.42 14.8534 1640.75 15.5194 1637.94 15.2534C1637.27 14.5834 1638.21 14.4484 1637.54 14.0494C1638.88 13.9144 1638.48 14.5834 1639.81 14.4484C1639.15 13.6474 1641.29 14.3154 1641.15 13.7804C1640.35 13.6474 1641.02 13.5124 1641.55 13.7804C1642.35 13.3804 1641.15 12.3114 1641.95 12.7124C1642.89 13.3804 1643.42 12.3124 1644.23 12.3124C1644.36 12.7124 1644.9 12.3114 1645.3 12.5784ZM1645.16 15.3854C1644.89 14.8514 1644.49 15.7874 1643.82 15.6524C1643.69 15.1194 1645.03 14.3164 1645.16 14.5854C1644.49 15.1184 1646.23 15.3864 1645.16 15.3854ZM1674.58 15.6534C1674.04 16.1904 1673.24 16.7254 1672.04 16.9934C1671.9 16.7254 1671.9 16.5914 1672.17 16.1904C1671.9 15.6554 1670.3 16.0574 1670.56 15.1214C1669.9 15.5204 1669.23 15.2564 1669.23 15.7904C1667.49 16.0564 1666.15 15.5204 1664.42 15.5204C1662.94 15.5204 1661.47 15.9234 1660 16.3234C1659.6 16.1904 1659.47 15.9234 1659.47 15.5204C1659.07 15.5204 1659.2 15.7904 1659.07 15.9224C1658.93 16.1904 1658.53 15.7894 1657.73 15.9224C1657.59 17.2594 1654.25 16.7234 1652.11 16.9914C1651.98 16.9914 1651.98 16.8574 1651.84 16.8574C1651.45 16.8574 1651.18 16.8574 1650.78 16.8574C1650.64 16.4554 1650.78 15.9204 1651.31 15.9204C1650.78 14.9834 1647.57 15.3854 1645.83 15.1174C1646.23 14.8504 1646.23 14.3154 1647.17 14.3154C1648.51 14.4494 1646.77 14.7164 1647.17 15.1174C1648.24 14.5834 1649.04 14.0484 1650.78 14.4494C1650.64 13.6454 1652.11 13.6454 1652.11 12.9774C1652.65 13.2454 1654.26 13.2454 1654.79 12.9774C1652.92 14.4484 1656.26 15.2494 1655.19 16.0514C1655.46 16.0514 1655.86 16.0514 1656.13 16.0514C1656.4 16.0514 1656.8 16.0514 1657.06 16.0514C1656.66 15.3834 1656.8 14.8504 1658 15.3834C1657.33 14.9834 1658.27 13.2444 1657.06 13.1104C1657.2 12.5764 1659.07 12.9774 1658.4 13.5124C1659.74 13.3764 1660.01 12.7074 1661.08 12.3094C1661.74 13.2434 1664.02 12.3094 1664.55 12.1744C1666.16 12.3094 1667.76 12.1744 1669.5 12.0394C1667.9 12.8424 1671.37 13.1094 1673.11 13.5114C1672.98 14.7184 1672.98 15.1184 1674.58 15.6534ZM1733.95 10.7034C1732.48 10.5694 1731.68 10.9714 1732.62 11.3724C1728.87 11.3724 1725.93 12.1754 1723.12 12.0404C1723.66 12.3104 1723.52 12.7094 1723.52 13.2444C1721.38 13.1104 1722.86 14.0474 1722.19 14.0474C1721.92 13.7804 1721.65 14.1814 1721.25 14.3144C1720.45 13.6464 1719.78 14.1814 1718.57 14.3144C1717.64 13.7794 1717.37 13.1114 1715.9 12.8434C1717.1 12.8434 1717.37 13.1094 1717.77 12.5754C1716.7 12.5754 1716.84 12.1744 1715.5 12.3074C1713.49 13.6434 1710.55 11.9054 1709.08 13.3754C1709.35 13.6434 1709.62 13.9104 1709.48 14.3134C1704 14.4444 1698.25 14.0444 1692.5 14.0444C1695.71 13.3754 1697.32 11.2364 1701.73 11.6374C1701.46 10.9684 1708.68 11.1044 1709.88 11.9054C1710.28 11.3714 1711.89 10.4344 1712.56 10.8364C1712.16 10.8364 1712.02 11.2374 1712.56 11.2374C1714.3 11.2374 1714.96 10.8354 1715.77 10.4344C1714.83 10.1674 1713.63 10.5694 1713.49 9.63245C1716.04 9.09845 1717.77 9.49845 1720.31 8.96345C1720.45 10.1674 1719.51 9.23145 1718.98 10.4344C1722.05 10.0364 1724.59 10.8374 1727.13 9.36745C1728.2 9.36745 1728.07 9.76845 1729.41 9.63545C1729.41 9.90445 1729.14 10.4374 1729.81 10.4374C1730.61 10.3044 1729.8 9.36945 1730.74 9.36945C1731.41 9.90445 1733.15 10.1724 1733.01 10.5724C1733.28 10.7054 1733.95 10.5714 1733.95 10.7034ZM1744.92 9.36845C1743.04 9.36845 1742.24 9.36845 1743.04 10.0374C1740.9 10.3054 1741.97 9.23345 1741.17 8.96745C1742.24 8.96745 1743.31 8.83445 1743.85 8.56645C1743.98 8.43345 1743.98 8.29845 1744.38 8.29845C1744.52 8.70045 1744.25 8.83345 1743.98 8.96745C1744.52 8.96745 1744.65 9.23345 1744.92 9.36845ZM1753.07 10.3054C1752.14 10.4394 1752.14 10.9744 1751.2 10.9744C1751.2 10.7054 1750.67 10.5724 1750.8 10.0374C1751.87 10.0374 1752.81 9.63645 1753.07 10.3054ZM1800.82 7.34545C1800.62 7.45145 1800.43 7.55145 1800.25 7.65245C1800.41 7.54045 1800.52 7.40545 1800.82 7.34545ZM1816.46 8.29945C1815.92 8.29945 1815.52 8.70045 1815.12 8.29945C1816.72 8.03045 1814.72 7.89845 1814.72 7.63145C1815.39 7.63145 1815.52 7.36245 1816.06 7.23045C1815.92 7.63145 1816.19 7.89745 1816.46 8.29945ZM1831.17 10.1714C1832.64 10.3044 1833.57 10.7054 1833.84 11.2394C1833.57 11.2394 1833.17 11.2394 1832.9 11.2394C1832.5 10.4384 1831.3 10.7054 1831.17 10.1714ZM1872.89 15.3854C1873.16 16.5894 1868.21 16.5894 1869.68 15.6524C1870.88 16.1884 1870.61 15.7874 1872.89 15.3854ZM1882.38 17.5244C1881.98 17.9254 1882.25 18.4614 1881.44 18.7274C1880.1 18.0594 1875.43 18.7274 1874.62 18.4604C1875.56 18.3274 1876.36 17.2574 1874.22 17.3914C1874.09 16.7234 1874.09 16.1884 1875.56 16.3234C1875.69 16.7234 1875.03 17.3914 1875.96 17.3914C1877.97 17.2584 1875.7 16.4564 1876.9 16.3234C1877.17 16.7234 1878.24 16.7234 1877.84 16.0544C1880.38 16.4564 1879.71 17.2584 1882.38 17.5244ZM1912.33 15.3864C1913.4 15.2534 1914.61 15.2534 1915.14 14.8534C1916.48 14.8534 1915.54 16.0554 1917.01 15.5194C1917.01 15.7894 1916.75 16.0544 1916.48 16.1894C1914.61 16.1884 1913 15.9214 1912.33 15.3864ZM1910.06 15.1184C1910.33 14.9834 1910.46 14.9834 1910.6 15.1184C1910.33 15.1184 1910.2 15.1184 1910.06 15.1184ZM1898.03 11.9094C1896.42 12.4444 1896.82 12.8474 1896.16 13.9154C1894.15 14.1834 1893.48 14.8534 1890.67 14.5844C1890.01 13.9144 1890.94 13.7804 1890.27 13.3814C1891.61 13.2464 1891.21 13.9144 1892.55 13.7804C1891.88 12.9794 1894.02 13.6474 1893.88 13.1124C1893.08 12.9794 1893.75 12.8444 1894.28 13.1124C1895.08 12.7124 1893.88 11.6414 1894.68 12.0434C1895.62 12.7124 1896.16 11.6424 1896.96 11.6424C1897.09 12.0434 1897.62 11.5084 1898.03 11.9094ZM1897.76 14.7174C1897.49 14.1834 1897.09 15.1184 1896.42 14.9844C1896.29 14.4514 1897.62 13.6484 1897.76 13.9164C1897.23 14.3154 1898.96 14.5844 1897.76 14.7174ZM1899.77 14.1834V14.4534C1899.23 14.4534 1898.69 14.4534 1898.29 14.3184C1898.69 14.0504 1898.69 13.5154 1899.63 13.3824H1899.77V13.7824C1899.63 13.9154 1899.5 14.0494 1899.63 14.1824H1899.77V14.1834ZM1907.25 12.1774C1906.98 12.4454 1906.72 12.7114 1906.72 12.9784C1906.45 12.8454 1906.18 12.7124 1905.92 12.5794C1905.38 12.5794 1904.85 12.5794 1904.31 12.5794C1904.45 12.4454 1904.58 12.3124 1904.58 12.1794C1905.25 12.5784 1906.72 12.5784 1907.25 12.1774ZM1907.79 15.7884C1908.19 15.7884 1908.73 15.5204 1909.26 15.3874C1909.39 15.3874 1909.39 15.3874 1909.53 15.3874C1909.53 15.2544 1909.53 15.2544 1909.53 15.2544C1909.79 15.1194 1909.93 15.1194 1910.06 15.1194C1909.93 16.5914 1905.78 15.6534 1903.64 16.3234C1903.11 16.4564 1902.97 15.7884 1903.24 15.3864C1903.38 15.3864 1903.51 15.2524 1903.51 15.2524C1903.64 15.2524 1903.64 15.2524 1903.78 15.2524C1903.64 15.1184 1903.64 14.9844 1903.51 14.9844C1903.38 14.8514 1903.38 14.7164 1903.24 14.7164C1904.58 14.7164 1905.65 14.9844 1905.92 15.5174C1907.65 15.1174 1907.52 15.2524 1907.79 15.7884Z" fill="#2D2C6E"/><path d="M375.093 15.8936C375.106 15.8886 375.12 15.8856 375.132 15.8806C375.072 15.8506 375.015 15.8176 374.952 15.7866C374.987 15.8216 375.044 15.8566 375.093 15.8936Z" fill="#2D2C6E"/><path d="M1887.05 9.11963C1887.51 9.31363 1888.01 9.41263 1888.53 9.43863C1888.58 9.41563 1888.66 9.39163 1888.8 9.36963C1888.67 9.11663 1887.72 9.21863 1887.05 9.11963Z" fill="#2D2C6E"/><path d="M196.913 13.3315C196.913 13.3495 196.927 13.3715 196.932 13.3925C197.076 13.3845 197.223 13.3805 197.371 13.3805C197.206 13.3625 197.065 13.3495 196.913 13.3315Z" fill="#2D2C6E"/><path d="M1824.19 15.3875C1824.24 15.3685 1824.28 15.3495 1824.33 15.3315C1824.32 15.1685 1824.28 15.0545 1824.24 14.9595C1823.97 15.1675 1823.73 15.3895 1823.55 15.6355C1823.6 15.6355 1823.62 15.6355 1823.65 15.6355C1823.67 15.5215 1823.84 15.5195 1823.95 15.5195C1823.95 15.5195 1823.95 15.5195 1823.95 15.3875C1824.03 15.3875 1824.11 15.3875 1824.19 15.3875Z" fill="#2D2C6E"/><path d="M1571.24 16.2547C1571.36 16.2267 1571.48 16.2587 1571.48 16.3217C1572.04 16.2297 1571.75 16.0697 1571.62 15.8887C1571.48 16.0047 1571.36 16.1267 1571.24 16.2547Z" fill="#2D2C6E"/><path d="M1251.76 13.3706C1251.81 13.3786 1251.87 13.3846 1251.92 13.3916C1252.27 13.1926 1252.51 12.8846 1252.69 13.2456C1253.57 13.2456 1252.57 12.9766 1252.54 12.6616C1252.14 12.8276 1252.06 13.1726 1251.76 13.3706Z" fill="#2D2C6E"/><path d="M1502.72 9.00439C1502.67 9.00839 1502.63 9.02139 1502.58 9.02139C1502.66 9.12239 1502.73 9.20339 1502.75 9.22639C1502.71 9.13539 1502.7 9.06339 1502.72 9.00439Z" fill="#2D2C6E"/><path d="M1634.4 10.0447C1634.83 10.2327 1635.29 10.3217 1635.77 10.3587C1635.67 10.2397 1635.66 10.1707 1636.07 10.1707C1635.94 9.92669 1635.04 10.0167 1634.37 9.92969C1634.36 9.95069 1634.35 9.97569 1634.34 9.99869C1634.36 10.0147 1634.38 10.0267 1634.4 10.0447Z" fill="#2D2C6E"/></svg>