<svg xmlns="http://www.w3.org/2000/svg" width="64" height="64" viewBox="0 0 64 64" fill="none"><path d="M35.5963 29.8381L18.8672 33.8524L21.5931 17.8613H31.7596L35.5963 29.8381Z" fill="#DBEEFF"/><path d="M49.5896 44.6249H21.5933V29.8382H35.5965L46.1641 32.3087C48.1705 32.7778 49.5896 34.5668 49.5896 36.6273V44.6249Z" fill="#FFF08F"/><path d="M46.1643 32.3089L35.5967 29.8384H30.5967L41.1643 32.3089C43.1707 32.7779 44.5898 34.567 44.5898 36.6275V44.625H49.5898V36.6275C49.5898 34.567 48.1707 32.7779 46.1643 32.3089Z" fill="#FFE64F"/><path d="M36.45 40.5334C36.1469 34.2498 30.6243 28.7562 24.3392 28.4841C18.8125 28.2448 14.0142 31.5634 12.0454 36.3359L17.1567 39.6841L31.3344 44.6249H36.0734C36.3303 43.3092 36.5138 41.8536 36.45 40.5334Z" fill="#FFCC00"/><path d="M46.4849 49.4694C49.5055 49.4694 51.9541 47.0208 51.9541 44.0002C51.9541 40.9796 49.5055 38.5309 46.4849 38.5309C43.4643 38.5309 41.0156 40.9796 41.0156 44.0002C41.0156 47.0208 43.4643 49.4694 46.4849 49.4694Z" fill="#B4C1CB"/><path d="M46.4847 45.7793C45.5037 45.7793 44.7056 44.9812 44.7056 44.0002C44.7056 43.0192 45.5037 42.2211 46.4847 42.2211C47.4657 42.2211 48.2638 43.0192 48.2638 44.0002C48.2638 44.9812 47.4657 45.7793 46.4847 45.7793Z" fill="#DBEEFF"/><path d="M23.7787 49.4696C28.3689 49.4696 32.09 45.7484 32.09 41.1582C32.09 36.5679 28.3689 32.8468 23.7787 32.8468C19.1884 32.8468 15.4673 36.5679 15.4673 41.1582C15.4673 45.7484 19.1884 49.4696 23.7787 49.4696Z" fill="#B4C1CB"/><path d="M23.7783 45.1521C21.5759 45.1521 19.7842 43.3604 19.7842 41.1579C19.7842 38.9554 21.5759 37.1638 23.7783 37.1638C25.9808 37.1638 27.7726 38.9554 27.7726 41.1579C27.7726 43.3604 25.9808 45.1521 23.7783 45.1521Z" fill="#DBEEFF"/><path d="M32.1486 17.9691H21.1048C20.1551 17.9691 19.3853 17.1992 19.3853 16.2496C19.3853 15.3 20.1551 14.5301 21.1048 14.5301H32.1486C33.0982 14.5301 33.8681 15.3 33.8681 16.2496C33.8681 17.1992 33.0982 17.9691 32.1486 17.9691Z" fill="#FFCC00"/><path d="M53.2316 8.0605C52.8442 7.71688 52.2519 7.75212 51.9081 8.13937C51.5644 8.52675 51.5998 9.11925 51.987 9.46288C58.4297 15.1809 62.125 23.3954 62.125 32C62.125 40.0466 58.9915 47.6117 53.3016 53.3015C47.6117 58.9915 40.0467 62.125 32 62.125C23.9533 62.125 16.3883 58.9915 10.6984 53.3015C5.0085 47.6117 1.875 40.0466 1.875 32C1.875 23.9534 5.0085 16.3883 10.6984 10.6985C16.3883 5.0085 23.9533 1.875 32 1.875C37.7306 1.875 43.3058 3.49137 48.1225 6.54938C48.5595 6.8265 49.1389 6.69763 49.4164 6.26025C49.6939 5.82312 49.5645 5.24388 49.1274 4.96625C44.0098 1.71725 38.0871 0 32 0C23.4525 0 15.4166 3.32863 9.3725 9.3725C3.32863 15.4166 0 23.4525 0 32C0 40.5475 3.32863 48.5834 9.3725 54.6275C15.4166 60.6714 23.4525 64 32 64C40.5475 64 48.5834 60.6714 54.6275 54.6275C60.6714 48.5834 64 40.5475 64 32C64 22.8597 60.0751 14.1341 53.2316 8.0605Z" fill="#2D2A6E"/><path d="M46.3776 31.3958L44.5533 30.9693V24.121L46.9696 22.6624C47.4129 22.3948 47.5554 21.8185 47.2878 21.3753C47.0203 20.932 46.4441 20.7898 46.0006 21.0572L43.1313 22.7892C42.8501 22.9588 42.6783 23.2634 42.6783 23.5918V30.5309L36.3273 29.0462L33.0299 18.7532C34.0625 18.3885 34.8056 17.4053 34.8056 16.2494C34.8056 14.7843 33.6138 13.5924 32.1486 13.5924H21.1048C19.6396 13.5924 18.4478 14.7843 18.4478 16.2494C18.4478 17.498 19.3146 18.5454 20.4774 18.8285L18.8328 28.4767C15.4378 29.8085 12.6238 32.4758 11.1789 35.9783C11.0073 36.3943 11.1554 36.8735 11.5318 37.12L14.736 39.219C14.602 39.8448 14.5298 40.4932 14.5298 41.1583C14.5298 42.5255 14.823 43.8443 15.4013 45.0782C15.621 45.5469 16.1793 45.749 16.648 45.5292C17.1169 45.3094 17.3188 44.7512 17.099 44.2824C16.6383 43.2994 16.4048 42.2483 16.4048 41.1582C16.4048 37.0923 19.7126 33.7844 23.7786 33.7844C27.8445 33.7844 31.1525 37.0923 31.1525 41.1582C31.1525 45.2242 27.8446 48.532 23.7786 48.532C22.4621 48.532 21.1688 48.1794 20.0381 47.5122C19.5924 47.2492 19.0174 47.3972 18.7543 47.8429C18.4911 48.2888 18.6393 48.8637 19.0851 49.1268C20.5041 49.9643 22.1271 50.4069 23.7786 50.4069C27.2851 50.4069 30.3421 48.4454 31.91 45.562H36.0733H40.2716C40.9708 48.3422 43.4909 50.4069 46.485 50.4069C50.0176 50.4069 52.8916 47.5329 52.8916 44.0002C52.8916 41.9989 51.9688 40.2097 50.527 39.0339V36.6273C50.5273 34.1183 48.8209 31.9669 46.3776 31.3958ZM48.6523 36.6273V37.9717C47.975 37.7275 47.2456 37.5937 46.4853 37.5937C43.0575 37.5937 40.2504 40.2994 40.0865 43.6873H37.1863C37.3639 42.5003 37.432 41.4272 37.3866 40.488C37.2288 37.2149 35.7773 34.0548 33.2993 31.5895C33.0123 31.304 32.7156 31.0329 32.411 30.7754H35.4885L45.9509 33.2213C47.5414 33.5934 48.6523 34.9939 48.6523 36.6273ZM21.1049 15.4674H32.1488C32.58 15.4674 32.9308 15.8183 32.9308 16.2494C32.9308 16.6662 32.6029 17.009 32.1916 17.0315H21.1049C20.6736 17.0315 20.3229 16.6807 20.3229 16.2494C20.3229 15.8183 20.6736 15.4674 21.1049 15.4674ZM22.3661 18.9065H31.1103L34.3118 28.9005H29.5644C27.9318 28.091 26.1719 27.6249 24.3798 27.5474C23.1726 27.4953 21.9844 27.607 20.8394 27.8629L22.3661 18.9065ZM32.6734 43.6873C32.9025 42.8828 33.0278 42.0352 33.0278 41.1583C33.0278 36.0584 28.8788 31.9095 23.7789 31.9095C20.0266 31.9095 16.7916 34.1568 15.3425 37.3749L13.2295 35.9908C15.2744 31.8327 19.6283 29.2184 24.2988 29.4208C30.0983 29.6718 35.2341 34.7814 35.5138 40.5785C35.5566 41.4673 35.4811 42.5104 35.2894 43.6874H32.6734V43.6873ZM51.0169 44.0004C51.0169 46.4992 48.984 48.5322 46.4853 48.5322C43.9865 48.5322 41.9535 46.4992 41.9535 44.0004C41.9535 41.5017 43.9865 39.4687 46.4853 39.4687C48.984 39.4687 51.0169 41.5017 51.0169 44.0004Z" fill="#2D2A6E"/><path d="M46.4852 41.2839C44.9872 41.2839 43.7686 42.5026 43.7686 44.0005C43.7686 45.4984 44.9873 46.7171 46.4852 46.7171C47.9831 46.7171 49.2018 45.4984 49.2018 44.0005C49.2018 42.5026 47.9831 41.2839 46.4852 41.2839ZM46.4852 44.8423C46.0211 44.8423 45.6436 44.4646 45.6436 44.0006C45.6436 43.5366 46.0212 43.159 46.4852 43.159C46.9492 43.159 47.3268 43.5366 47.3268 44.0006C47.3268 44.4646 46.9492 44.8423 46.4852 44.8423Z" fill="#2D2A6E"/><path d="M23.7788 46.0902C26.4982 46.0902 28.7105 43.8779 28.7105 41.1586C28.7105 38.4392 26.4982 36.2269 23.7788 36.2269C21.0595 36.2269 18.8472 38.4392 18.8472 41.1586C18.8472 43.8779 21.0595 46.0902 23.7788 46.0902ZM23.7788 38.1018C25.4643 38.1018 26.8355 39.4731 26.8355 41.1584C26.8355 42.8438 25.4643 44.2151 23.7788 44.2151C22.0934 44.2151 20.7222 42.8438 20.7222 41.1584C20.7222 39.4731 22.0934 38.1018 23.7788 38.1018Z" fill="#2D2A6E"/></svg>