<svg xmlns="http://www.w3.org/2000/svg" width="64" height="64" viewBox="0 0 64 64" fill="none"><g clip-path="url(#clip0_617_4034)"><path d="M48.7775 28.051C48.7775 28.051 47.8271 25.5572 44.8022 23.6943C41.9352 21.9285 37.7368 21.7219 35.9831 24.8003C34.3762 27.6209 36.1892 31.2868 39.462 31.6297C43.8836 32.0928 44.8938 27.7125 48.7775 28.051Z" fill="#9EE8C0"/><path d="M19.4941 12.9575C22.0688 11.9835 25.4996 11.4515 28.593 12.3644C33.6033 13.8429 35.7336 19.0871 33.9088 22.0504C32.0425 25.0807 27.7054 25.6937 25.1795 22.7326C22.598 19.7064 24.1098 16.2554 19.4941 12.9575Z" fill="#9EE8C0"/><path d="M45.5081 45.4453C45.5081 45.4453 45.5081 40.9848 41.3998 40.2386C37.9281 39.6079 37.7708 37.6966 35.3512 37.1622C32.1496 36.4551 31.4628 39.5618 27.7503 38.5993C18.8431 36.2901 18.1008 44.9086 18.1008 44.9086C18.1008 44.9086 27.8346 52.0749 36.5207 50.6879C43.9597 49.5001 45.5081 45.4453 45.5081 45.4453Z" fill="#F2C4AC"/><path d="M41.3999 40.2386C37.9281 39.6079 37.7709 37.6966 35.3513 37.1622C33.8584 36.8324 32.9123 37.3321 31.9513 37.8616C33.1083 38.6523 33.8839 39.7816 36.3998 40.2387C36.464 40.2503 36.5271 40.2629 36.5894 40.2763C40.2255 41.0622 41.2251 45.8098 38.2645 48.0624C36.9144 49.0897 34.8153 50.1472 31.6143 50.6723C33.2394 50.9076 34.8983 50.9471 36.5206 50.6881C43.9596 49.5002 45.5079 45.4454 45.5079 45.4454C45.5079 45.4454 45.5081 40.9848 41.3999 40.2386Z" fill="#E8B499"/><path d="M36.4918 48.7769C37.6568 48.5117 38.3739 47.3058 38.0003 46.1305C37.6801 45.1238 36.6235 44.534 35.5886 44.746C35.1998 44.8257 34.807 44.8872 34.4104 44.9308C32.2293 45.1704 30.0643 44.4539 28.4006 43.0233C28.3868 43.0113 28.3728 42.9994 28.3588 42.9877C26.3935 41.3345 23.4356 41.7132 21.6603 43.5685H16.3694V50.436H21.6603C27.4946 53.8324 35.3093 54.166 41.4783 51.516C45.6828 49.7099 48.0135 47.1152 48.1106 47.0055C48.8678 46.1518 48.7893 44.8459 47.9355 44.0888C47.0838 43.3335 45.7823 43.4097 45.0244 44.2575C44.9786 44.3077 43.0714 46.3748 39.679 47.7904C38.6384 48.2245 37.5754 48.5524 36.4918 48.7769Z" fill="#FFE1D1"/><path d="M47.9353 44.0888C47.0837 43.3335 45.7821 43.4097 45.0242 44.2575C45.0014 44.2824 44.5196 44.8045 43.6256 45.497C43.6611 46.0293 43.4924 46.5748 43.1106 47.0054C43.0134 47.1149 40.6826 49.7098 36.4782 51.5159C34.4978 52.3667 32.3477 52.908 30.1482 53.1413C34.0153 53.5534 38.0073 53.007 41.4782 51.5159C45.6826 49.7098 48.0134 47.115 48.1106 47.0054C48.8676 46.1517 48.7891 44.8459 47.9353 44.0888Z" fill="#FFD9C4"/><path d="M60.619 46.312C60.8506 45.8489 60.6632 45.2858 60.2002 45.054C59.7371 44.8222 59.1739 45.0098 58.9422 45.4727C55.0866 53.1759 48.1084 58.8713 39.797 61.0983C32.0245 63.181 23.9062 62.1122 16.9376 58.0888C9.96886 54.0655 4.98416 47.5693 2.90151 39.7967C0.818858 32.0242 1.88762 23.9059 5.91109 16.9373C9.93432 9.96865 16.4307 4.98392 24.2031 2.9013C31.9755 0.818685 40.0939 1.88741 47.0624 5.9108C54.0312 9.93411 59.0159 16.4303 61.0985 24.2029C62.5817 29.7383 62.4634 35.5418 60.7563 40.9859C60.6017 41.4797 60.8761 42.006 61.3704 42.1608C61.8645 42.3157 62.3905 42.0408 62.5455 41.5467C64.3593 35.7626 64.4851 29.5973 62.9097 23.7176C60.6974 15.4614 55.4024 8.56081 48.0001 4.28691C40.5976 0.0133053 31.9741 -1.12206 23.7178 1.09019C15.4616 3.30245 8.56102 8.59749 4.28711 15.9998C0.0135108 23.4022 -1.12186 32.0258 1.0904 40.282C3.30266 48.5383 8.5977 55.4388 16 59.7127C23.4024 63.9863 32.026 65.1217 40.2822 62.9094C49.111 60.5438 56.5235 54.4943 60.619 46.312Z" fill="#2D2A6E"/><path d="M34.8036 30.067C34.9175 29.9557 35.0344 29.8489 35.1529 29.745C36.1549 31.5657 38.0589 32.603 40.1145 32.602C42.3413 32.602 43.7673 31.5004 45.0396 30.5169C46.2421 29.5876 47.1915 28.8541 48.696 28.9849C49.4829 28.9155 49.8021 28.4929 49.6535 27.717C49.61 27.603 48.5521 24.9025 45.2938 22.8959C43.2433 21.6329 40.7075 21.1714 38.6764 21.6911C35.9519 22.3881 34.0968 25.0249 34.5129 27.8499C33.85 28.3516 33.239 28.9342 32.7173 29.582C32.7173 27.9415 32.7528 26.2969 32.7095 24.6569C33.8686 23.9332 34.9001 22.6995 35.2764 21.3825C36.4448 17.217 33.3181 12.8677 29.4106 11.607C26.0211 10.5225 22.2681 10.7022 19.1143 12.1002C18.4626 12.3884 18.3723 13.3061 18.9493 13.7201C20.6183 14.9124 21.6948 16.4826 22.3374 18.6617C22.6806 19.8257 24.4768 19.2772 24.1254 18.0964C23.545 16.1461 22.6246 14.5589 21.3334 13.2835C23.709 12.5882 26.3421 12.609 28.7716 13.3714C31.6545 14.8076 34.3621 17.2646 33.4694 20.8816C33.2985 21.4646 32.8744 22.0084 32.4868 22.4271C32.0034 19.7959 30.8584 18.2906 30.0191 17.507C29.5626 17.0809 28.8256 17.2121 28.5459 17.7704C28.3596 18.142 28.4413 18.591 28.7461 18.8735C29.4013 19.4801 30.4456 20.8404 30.753 23.5102C29.3924 23.9677 27.7714 23.8537 26.6465 22.8477C25.7359 22.0334 24.4223 23.3507 25.3438 24.1976C26.394 25.1625 27.806 25.6427 29.2494 25.6426C29.7816 25.6426 30.318 25.576 30.8421 25.4455C30.8421 29.1655 30.866 37.3804 30.866 37.3804C30.0578 37.7887 29.2721 38.0249 27.9858 37.6916C20.9885 35.877 18.4864 40.306 17.6741 42.631H16.3691C15.8514 42.631 15.4316 43.0507 15.4316 43.5685V50.436C15.4316 50.9537 15.8514 51.3735 16.3691 51.3735H21.4104C24.1889 52.9429 27.458 53.9012 30.8833 54.148C34.2669 54.392 37.7335 53.9434 40.9151 52.7519C42.0504 52.3269 41.3929 50.5719 40.2574 50.996C34.4294 53.1786 27.3175 52.642 22.1373 49.629C21.992 49.5445 21.828 49.4984 21.66 49.4984H17.3066V44.5059H21.676C21.9283 44.5059 22.165 44.3965 22.3395 44.2144C23.8464 42.6415 26.2248 42.4176 27.754 43.7041C30.0463 45.6141 32.8725 46.2584 35.7766 45.6645C37.354 45.3395 37.5206 47.4846 36.222 47.879C33.5748 48.6741 29.8601 47.9357 29.8236 47.9284C28.6356 47.686 28.2609 49.5229 29.4484 49.7655C35.0229 50.8996 41.8116 49.1842 45.7228 44.8825C46.6928 43.7972 48.3758 45.2934 47.4084 46.3839C47.3644 46.4337 46.3114 47.6117 44.3324 48.9162C43.2835 49.6077 44.3276 51.1625 45.3274 50.506C47.4974 49.0815 48.6838 47.7717 48.8115 47.6275C50.721 45.4746 48.622 42.0375 45.8401 42.7211C45.0453 40.8744 43.5611 39.6782 41.5673 39.3161C39.8859 39.0106 39.1308 38.3939 38.3313 37.741C37.6046 37.1474 36.853 36.5337 35.5531 36.2466C34.388 35.9891 33.486 36.1482 32.7169 36.4451C32.639 34.0372 33.0013 31.8289 34.8036 30.067ZM36.7976 25.2644C37.5511 23.9416 38.9659 23.3519 40.4445 23.3519C43.1601 23.3519 45.7063 25.0421 47.2275 27.2145C45.8635 27.511 44.8324 28.3076 43.8933 29.0332C42.5984 30.034 41.4811 30.8974 39.5596 30.6972C38.3281 30.5682 37.2294 29.7621 36.6973 28.6517C38.275 27.7539 39.9773 27.3586 41.2409 27.3881C42.5431 27.4165 42.3544 25.5115 41.0978 25.5115C39.5415 25.5115 37.8675 25.9492 36.3435 26.7142C36.3896 26.21 36.5404 25.716 36.7976 25.2644ZM35.1493 38.0775C36.0131 38.2682 36.5129 38.6765 37.1456 39.1932C38.0053 39.8952 39.075 40.7689 41.2324 41.1609C42.7026 41.428 43.707 42.2935 44.2274 43.7327C42.775 45.1854 40.9221 46.2942 39.0216 47.0446C39.0591 46.6449 39.0178 46.237 38.8936 45.8466C38.4284 44.383 36.9265 43.5147 35.4006 43.8277C33.0848 44.302 30.7703 43.8449 28.9621 42.2702C26.7768 40.4319 23.4764 40.6124 21.278 42.6311H19.6829C21.3225 38.8259 24.7959 38.802 27.5153 39.5067C29.8238 40.1056 31.223 39.3336 32.3473 38.7136C33.2908 38.1935 33.9716 37.8176 35.1493 38.0775Z" fill="#2D2A6E"/></g><defs><clipPath id="clip0_617_4034"><rect width="64" height="64" fill="white"/></clipPath></defs></svg>