<svg xmlns="http://www.w3.org/2000/svg" width="64" height="64" viewBox="0 0 64 64" fill="none"><path d="M17.4105 28.0887C14.3019 30.7567 11.0484 34.861 11.2448 40.1749C11.4207 44.9331 14.9582 49.7419 19.8382 49.6419C24.2444 49.5516 27.1245 46.143 26.2893 42.0191C25.002 35.6628 16.2502 35.3587 17.4105 28.0887Z" fill="#9EE8C0"/><path d="M26.2892 42.019C25.0019 35.6627 16.25 35.3587 17.4104 28.0887C15.9571 29.336 14.4725 30.8971 13.3232 32.7489C15.4725 35.975 20.3534 37.3976 21.2892 42.019C21.9591 45.3264 20.2379 48.1719 17.2575 49.2164C18.0621 49.5079 18.9266 49.6605 19.838 49.6419C24.2442 49.5516 27.1245 46.1429 26.2892 42.019Z" fill="#8ADEB0"/><path d="M34.9204 49.0902C38.8689 50.1817 44.0902 50.5921 48.3906 47.4646C52.2414 44.6641 54.2588 39.0456 51.4534 35.0512C48.9204 31.4447 44.4847 30.9561 41.528 33.95C36.971 38.5645 41.6013 45.9973 34.9204 49.0902Z" fill="#9EE8C0"/><path d="M51.4531 35.0512C49.441 32.1864 46.2288 31.2914 43.5105 32.5441C44.614 33.0459 45.6335 33.8842 46.4531 35.0512C49.2585 39.0455 47.2413 44.6641 43.3904 47.4646C41.6569 48.7252 39.7738 49.4105 37.8848 49.7086C41.2708 50.1785 45.0998 49.8577 48.3904 47.4646C52.2413 44.6641 54.2585 39.0455 51.4531 35.0512Z" fill="#8ADEB0"/><path d="M43.1003 24.6312C42.3006 20.6134 40.3203 15.7649 35.5934 13.3292C31.3609 11.148 25.4352 11.8715 23.1282 16.173C21.0452 20.0568 22.6024 24.2388 26.6058 25.5342C32.7759 27.5307 37.3344 20.0535 43.1003 24.6312Z" fill="#9EE8C0"/><path d="M35.5936 13.3292C33.3236 12.1594 30.5672 11.8264 28.1426 12.4314C28.9942 12.6319 29.8222 12.9317 30.5936 13.3292C34.788 15.4907 36.8188 19.5515 37.7821 23.2463C39.4921 22.9311 41.233 23.1485 43.1005 24.6311C42.3007 20.6134 40.3203 15.7649 35.5936 13.3292Z" fill="#8ADEB0"/><path d="M54.6275 9.3725C48.5834 3.32863 40.5475 0 32 0C25.1221 0 18.5666 2.15087 13.0421 6.22C12.6252 6.52712 12.5363 7.11387 12.8433 7.53075C13.1504 7.94762 13.7373 8.03675 14.154 7.72963C19.3541 3.8995 25.5251 1.875 32 1.875C40.0467 1.875 47.6117 5.0085 53.3016 10.6984C58.9915 16.3883 62.125 23.9533 62.125 32C62.125 40.0467 58.9915 47.6117 53.3016 53.3016C47.6117 58.9915 40.0467 62.125 32 62.125C23.9533 62.125 16.3883 58.9915 10.6984 53.3016C5.0085 47.6117 1.875 40.0467 1.875 32C1.875 24.0495 4.94613 16.5484 10.5226 10.8786C10.8856 10.5095 10.8808 9.91587 10.5116 9.55287C10.1424 9.18975 9.54887 9.19462 9.18587 9.56388C3.26225 15.5865 0 23.5545 0 32C0 40.5475 3.32863 48.5834 9.3725 54.6275C15.4166 60.6714 23.4525 64 32 64C40.5475 64 48.5834 60.6714 54.6275 54.6275C60.6714 48.5834 64 40.5475 64 32C64 23.4525 60.6714 15.4166 54.6275 9.3725Z" fill="#2D2A6E"/><path d="M16.9251 27.3771C13.8448 30.0207 10.2181 34.393 10.4329 40.2092C10.5284 42.7908 11.5326 45.3889 13.1881 47.337C16.0286 50.6797 21.1882 51.7787 24.8102 48.9657C26.2456 49.4775 27.7836 49.8107 29.3854 49.9506C30.5626 50.0515 30.7249 48.1855 29.5486 48.0827C28.4013 47.9825 27.2957 47.7675 26.2494 47.4547C27.3639 45.8662 27.7496 43.8879 27.3333 41.8327C26.6901 38.6563 24.3844 36.8346 22.3502 35.2272C19.8673 33.2653 17.9062 31.7157 18.4614 28.2363C18.5963 27.3918 17.5739 26.8206 16.9251 27.3771ZM21.1877 36.6983C23.1424 38.2429 24.9887 39.7017 25.4957 42.205C25.8192 43.8024 25.4817 45.524 24.4046 46.774C21.1941 45.3474 18.7858 42.9165 17.9141 39.9872C17.7664 39.491 17.2448 39.2085 16.7481 39.3561C16.2518 39.5038 15.9693 40.0259 16.1169 40.5221C16.8517 42.9906 18.4767 45.1899 20.8162 46.8822C21.4186 47.318 22.0578 47.711 22.7286 48.06C21.8273 48.5029 20.8148 48.7056 19.8142 48.7056C15.5071 48.7055 12.4608 44.3065 12.3068 40.14C12.1548 36.0277 14.2708 32.6878 16.5524 30.3056C16.9417 33.3431 19.1736 35.1068 21.1877 36.6983Z" fill="#2D2A6E"/><path d="M39.4668 35.4397C38.5821 37.2589 38.432 39.2057 38.2868 41.0886C38.0627 43.9939 37.5618 46.8924 34.6519 48.2394C33.8715 48.5969 33.9733 49.7864 34.8148 49.9987C36.9625 50.5449 38.9301 50.8181 40.7395 50.8181C42.8833 50.8181 44.8045 50.4344 46.5377 49.6659C47.6458 49.1745 46.8857 47.4601 45.7777 47.9517C43.4714 48.9744 40.7298 49.2027 37.4455 48.6434C39.54 46.7415 39.9502 43.9052 40.1564 41.2329C40.2943 39.4461 40.4245 37.7584 41.1532 36.2597C42.16 34.1892 44.3645 32.6767 46.7209 32.9642C47.3283 36.425 46.6544 39.7801 44.7097 42.1381C43.9495 43.0597 45.3679 44.2867 46.1562 43.3311C47.7949 41.3442 48.7135 38.7686 48.8129 35.8829C48.8383 35.1436 48.8085 34.3976 48.725 33.6501C50.117 34.4506 51.2489 35.846 51.7073 37.474C52.3392 39.7186 51.7249 42.3899 50.064 44.6197C49.3399 45.5917 50.8437 46.7119 51.5677 45.7397C53.5737 43.0466 54.3007 39.7666 53.5122 36.9659C52.7714 34.3347 50.7412 32.2257 48.3162 31.4141C47.9402 29.9346 47.3578 28.4695 46.5789 27.0595C45.9928 25.9985 44.3515 26.9051 44.9377 27.9661C45.4947 28.9745 45.933 30.0124 46.2573 31.0554C43.4723 31.0094 40.7886 32.7215 39.4668 35.4397Z" fill="#2D2A6E"/><path d="M18.3617 24.2316C17.6975 25.2028 19.1948 26.3348 19.9093 25.2901C20.5595 24.3396 21.2893 23.4816 22.0751 22.7233C22.9125 24.4738 24.4473 25.7804 26.4423 26.4259C29.2797 27.3441 32.0155 26.4022 34.6431 25.3242C37.5707 24.1231 39.8831 23.1743 42.6427 25.3653C43.3123 25.8969 44.3121 25.2866 44.1451 24.4481C43.3526 20.4669 41.322 15.1617 36.1482 12.4957C33.8517 11.3124 31.0953 10.9129 28.5856 11.3997C25.8248 11.9352 23.6377 13.4729 22.4273 15.7298C21.5478 17.3697 21.2221 19.0963 21.4647 20.7281C20.3143 21.7276 19.2695 22.9044 18.3617 24.2316ZM24.0795 16.6159C25.3856 14.1808 28.0183 13.0737 30.7242 13.0737C32.3042 13.0737 33.9092 13.4513 35.2892 14.1624C38.9472 16.0474 40.8193 19.5297 41.776 22.6866C38.938 21.5356 36.3063 22.6152 33.9315 23.5896C31.6267 24.5352 29.4497 25.4282 27.0197 24.6421C25.4691 24.1403 24.1345 23.0016 23.5736 21.4497C26.3917 19.3521 29.6913 18.4461 32.6717 19.1234C33.1766 19.2383 33.679 18.9219 33.7937 18.4171C33.9085 17.9122 33.5922 17.4098 33.0873 17.2951C30.5757 16.7242 27.8622 17.0613 25.2397 18.2697C24.5646 18.5808 23.9085 18.9451 23.2752 19.3582C23.3257 18.4519 23.5938 17.5212 24.0795 16.6159Z" fill="#2D2A6E"/></svg>