<svg xmlns="http://www.w3.org/2000/svg" width="66" height="65" viewBox="0 0 66 65" fill="none"><path d="M32.994 41.0752C32.994 51.3343 41.3216 52.6827 45.8943 49.0945C50.5389 45.4499 51.3431 36.7765 39.9331 35.509C51.9401 36.8427 53.9628 28.9489 51.3058 24.3217C48.9521 20.2227 42.926 18.687 36.9152 28.401C43.2899 18.099 38.1353 13.5055 32.9601 13.468C27.747 13.4303 22.5128 18.0238 29.0201 28.401C16.053 7.7216 3.41123 38.0243 26.0548 35.509C14.2407 36.8213 15.4859 46.0128 20.4863 49.5548C25.0699 52.8016 32.994 50.9654 32.994 41.0752Z" fill="#DBEEFF"></path><path d="M51.3063 24.3217C49.8471 21.7805 46.9762 20.2257 43.5727 21.7248C44.6792 22.2859 45.5892 23.209 46.2282 24.3217C48.8852 28.9489 46.8624 36.8427 34.8555 35.5089C46.2655 36.7764 45.4614 45.4499 40.8167 49.0944C40.0414 49.7028 39.1579 50.1688 38.2256 50.4739C40.7764 51.3748 43.7489 50.7781 45.8948 49.0944C50.5394 45.4499 51.3436 36.7764 39.9336 35.5089C51.9406 36.8427 53.9633 28.9489 51.3063 24.3217Z" fill="#CCE7FF"></path><path d="M32.9593 37.4605C34.7705 37.4605 36.2388 35.9922 36.2388 34.1809C36.2388 32.3697 34.7705 30.9014 32.9593 30.9014C31.148 30.9014 29.6797 32.3697 29.6797 34.1809C29.6797 35.9922 31.148 37.4605 32.9593 37.4605Z" fill="#FFF08F"></path><path d="M55.9381 55.4811C62.0764 49.3425 65.457 41.1811 65.457 32.5C65.457 23.8189 62.0764 15.6575 55.9381 9.51895C49.7996 3.38063 41.6381 -1.04116e-06 32.957 -1.42062e-06C27.7117 -1.6499e-06 22.4999 1.2793 17.885 3.69979C13.4193 6.04195 9.49964 9.44925 6.55002 13.5535C6.24266 13.9806 6.34029 14.5755 6.76749 14.8823C7.19443 15.1892 7.78946 15.0918 8.09631 14.6649C10.8742 10.8 14.5648 7.59154 18.7695 5.38624C23.1126 3.10832 28.0186 1.9043 32.957 1.9043C41.1295 1.9043 48.8127 5.08676 54.5915 10.8655C60.3703 16.6443 63.5527 24.3275 63.5527 32.5C63.5527 40.6725 60.3703 48.3557 54.5915 54.1345C48.8127 59.9132 41.1295 63.0957 32.957 63.0957C24.7847 63.0957 17.1013 59.9132 11.3227 54.1345C5.54379 48.3557 2.36133 40.6725 2.36133 32.5C2.36133 27.7142 3.43713 23.1292 5.5589 18.8722C5.79338 18.4015 5.60206 17.8298 5.13145 17.5953C4.66083 17.3607 4.08903 17.5522 3.85442 18.0228C1.60012 22.546 0.45703 27.4168 0.45703 32.5C0.457029 41.1811 3.83766 49.3425 9.97598 55.481C16.1145 61.6194 24.276 65 32.957 65C41.6381 65 49.7996 61.6194 55.9381 55.4811Z" fill="#2D2A6E"></path><path d="M16.1333 41.0459C15.2855 44.3274 16.8487 48.1459 19.9347 50.3319C22.5358 52.1745 26.1033 52.5314 28.9565 51.0559C30.1691 50.4289 31.9165 49.118 32.9889 46.503C34.0702 49.1453 35.847 50.4269 37.0779 51.0257C39.9935 52.4438 43.7723 51.969 46.4808 49.8437C49.2967 47.6342 50.6509 43.94 49.774 40.8601C49.4084 39.5757 48.4499 37.6871 45.9464 36.2833C46.5262 36.1634 47.0774 36.0108 47.5992 35.8256C49.5473 35.1336 51.0387 34.014 52.032 32.4982C53.6721 29.9954 53.7107 26.5999 52.1303 23.8476C51.6435 22.9998 51.0333 22.2722 50.3166 21.6849C49.3666 20.9065 48.1598 22.3795 49.1097 23.1581C49.6469 23.5983 50.1075 24.1494 50.4789 24.7958C51.7055 26.9322 51.69 29.5458 50.4391 31.4544C48.7595 34.0173 45.0656 35.1218 40.0368 34.5626C38.8164 34.4263 38.6058 36.3197 39.8266 36.4552C44.2971 36.9518 47.1793 38.7012 47.9423 41.3815C48.613 43.7371 47.5285 46.6008 45.3051 48.3454C43.1575 50.0308 40.1858 50.4199 37.9108 49.313C35.3532 48.069 33.9446 45.1433 33.9446 41.0751C33.9446 39.847 32.0403 39.847 32.0403 41.0751C32.0403 45.1003 30.6344 48.0441 28.0815 49.3642C25.8979 50.4934 23.132 50.2631 21.0351 48.7778C18.6189 47.0663 17.3327 44.0147 17.9768 41.5221C18.69 38.7615 21.5956 36.962 26.1584 36.4552C27.3791 36.3197 27.1691 34.4277 25.9482 34.5626C22.5711 34.9377 19.8439 34.5866 17.8423 33.5189C16.2439 32.6663 15.1713 31.3612 14.7405 29.7446C13.9749 26.8717 15.4223 23.5338 17.9012 22.4555C19.2385 21.874 20.7714 21.9903 22.334 22.7916C24.3329 23.8169 26.3105 25.8743 28.212 28.9067C28.8644 29.9473 30.4779 28.9355 29.8254 27.895C27.0202 23.4217 26.2327 19.6008 27.6079 17.1365C28.5666 15.4182 30.5622 14.4085 32.9518 14.42C35.3226 14.4372 37.3049 15.4735 38.2543 17.1921C39.6157 19.6564 38.852 23.4591 36.1041 27.8999C35.4579 28.9444 37.077 29.9463 37.7235 28.902C40.6687 24.1422 43.3041 22.6509 44.9964 22.2379C46.1896 21.947 45.7382 20.0969 44.5449 20.388C43.1905 20.7186 41.8365 21.454 40.5148 22.5664C41.1859 19.6687 40.6705 17.6279 39.9211 16.2713C38.5303 13.7539 35.6818 12.5156 32.8915 12.5156C29.8304 12.5156 27.2372 13.8927 25.9449 16.2087C25.1862 17.5682 24.6674 19.6161 25.358 22.5313C21.6175 19.4144 18.544 20.0995 17.1416 20.7094C13.7916 22.1666 11.8889 26.4397 12.9005 30.235C13.4709 32.375 14.8698 34.0917 16.9461 35.1992C17.8593 35.6863 18.8863 36.0479 20.0223 36.2833C17.43 37.7327 16.4792 39.7073 16.1333 41.0459Z" fill="#2D2A6E"></path><path d="M32.9664 38.4114C33.7469 38.4114 34.5364 38.196 35.241 37.7449C36.193 37.1355 36.8508 36.192 37.093 35.0877C37.3352 33.9837 37.133 32.8514 36.5238 31.8994V31.8993C35.2659 29.9342 32.6434 29.3587 30.6783 30.6167C29.7263 31.2261 29.0686 32.1696 28.8263 33.2738C28.5841 34.3778 28.7863 35.5101 29.3957 36.4622C30.2025 37.7229 31.5704 38.4114 32.9664 38.4114ZM30.6863 33.6821C30.8196 33.0749 31.1813 32.5559 31.7049 32.2206C32.0926 31.9725 32.5266 31.8541 32.956 31.8541C33.7237 31.8541 34.4763 32.2328 34.92 32.926C35.2551 33.4496 35.3663 34.0724 35.2332 34.6796C35.0999 35.2868 34.7382 35.8058 34.2146 36.1411C33.1336 36.8328 31.6914 36.5165 30.9995 35.4356C30.6642 34.912 30.553 34.2893 30.6863 33.6821Z" fill="#2D2A6E"></path><path d="M43.1151 30.9706C44.2384 30.4741 43.4688 28.7323 42.3454 29.2287L38.5773 30.8937C37.4543 31.3901 38.2228 33.1325 39.347 32.6356L43.1151 30.9706Z" fill="#2D2A6E"></path><path d="M33.9121 27.9956V23.8333C33.9121 22.605 32.0078 22.605 32.0078 23.8333V27.9956C32.0078 29.2239 33.9121 29.2239 33.9121 27.9956Z" fill="#2D2A6E"></path><path d="M38.9209 43.1395C39.6994 44.1055 41.1704 42.8964 40.404 41.9449L37.8628 38.7902C37.0921 37.8339 35.6093 39.0284 36.3797 39.9848L38.9209 43.1395Z" fill="#2D2A6E"></path><path d="M27.111 30.8936L23.3431 29.2286C22.2196 28.7325 21.4501 30.474 22.5733 30.9705L26.3413 32.6355C27.4655 33.1322 28.2339 31.3899 27.111 30.8936Z" fill="#2D2A6E"></path><path d="M25.4252 43.2838C25.8272 43.6074 26.4362 43.5463 26.764 43.1396L29.3052 39.9849C30.0757 39.0284 28.5928 37.8338 27.8222 38.7903L25.2809 41.9449C24.9511 42.3545 25.0157 42.9539 25.4252 43.2838Z" fill="#2D2A6E"></path></svg>