<svg xmlns="http://www.w3.org/2000/svg" width="65" height="65" viewBox="0 0 65 65" fill="none"><path d="M15.7692 35.8748L32.635 19.0088C32.6817 18.9621 32.7312 18.92 32.7804 18.8774C37.1583 14.7911 44.0195 14.8791 48.2872 19.1468C52.392 23.2515 52.6311 29.7566 49.0074 34.1429L49.0456 34.1809L31.5605 51.6662C30.4703 52.7563 28.7028 52.7563 27.6126 51.6662C26.5235 50.5771 26.5226 48.8118 27.6098 47.7214C26.5194 48.8086 24.7541 48.8078 23.665 47.7186C22.5749 46.6284 22.5749 44.8609 23.665 43.7706C22.5749 44.8608 20.8073 44.8608 19.717 43.7706C18.6269 42.6805 18.6269 40.9129 19.717 39.8226C18.6269 40.9128 16.8593 40.9128 15.769 39.8226C14.6789 38.7325 14.6789 36.9649 15.7692 35.8748Z" fill="#FFE1D1"></path><path d="M24.2017 27.4418L32.6346 19.0088H32.6348L24.2017 27.4418Z" fill="#FFD9C4"></path><path d="M15.7689 35.8752L19.0328 32.6113C17.9426 33.7015 17.9426 35.469 19.0328 36.5592C20.1229 37.6493 21.8905 37.6493 22.9808 36.5592C21.8906 37.6493 21.8905 39.4169 22.9808 40.5071C24.0709 41.5972 25.8385 41.5972 26.9288 40.5071C25.8386 41.5972 25.8385 43.3648 26.9288 44.455C28.0179 45.5443 29.7832 45.5451 30.8736 44.4578C29.7863 45.5482 29.7871 47.3135 30.8764 48.4026C31.9665 49.4928 33.7341 49.4928 34.8242 48.4026L31.5604 51.6665C30.4702 52.7566 28.7027 52.7566 27.6125 51.6665C26.5233 50.5772 26.5225 48.8121 27.6097 47.7217C26.5193 48.8089 24.754 48.8081 23.6649 47.7189C22.5748 46.6287 22.5748 44.8612 23.6649 43.7709C22.5748 44.861 20.8072 44.861 19.7169 43.7709C18.6268 42.6807 18.6268 40.9132 19.7169 39.823C18.6268 40.9132 16.8592 40.9132 15.7689 39.823C14.6787 38.7329 14.6787 36.9653 15.7689 35.8752Z" fill="#FFD9C4"></path><path d="M49.0984 39.8072C50.1886 38.717 50.1886 36.9495 49.0984 35.8592L45.7189 32.4797C44.6288 31.3896 42.8612 31.3896 41.7711 32.4797C40.6809 33.5699 40.6809 35.3374 41.7711 36.4276L45.1505 39.8071C46.2407 40.8973 48.0083 40.8973 49.0984 39.8072Z" fill="#F2C4AC"></path><path d="M45.1511 43.7554C46.2413 42.6653 46.2413 40.8977 45.1511 39.8075L41.7716 36.428C40.6815 35.3378 38.9139 35.3378 37.8238 36.428C36.7336 37.5181 36.7336 39.2857 37.8238 40.3758L41.2033 43.7553C42.2934 44.8457 44.061 44.8457 45.1511 43.7554Z" fill="#F2C4AC"></path><path d="M41.2019 47.7027C42.2921 46.6126 42.2921 44.845 41.2019 43.7547L37.8224 40.3752C36.7323 39.2851 34.9647 39.2851 33.8746 40.3752C32.7844 41.4654 32.7844 43.2329 33.8746 44.3231L37.2541 47.7026C38.3442 48.7928 40.1118 48.7929 41.2019 47.7027Z" fill="#F2C4AC"></path><path d="M37.2547 51.6509C38.3448 50.5608 38.3448 48.7932 37.2547 47.703L33.8752 44.3235C32.785 43.2333 31.0174 43.2333 29.9273 44.3235C28.8372 45.4136 28.8372 47.1812 29.9273 48.2713L33.3068 51.6508C34.3969 52.7412 36.1645 52.7412 37.2547 51.6509Z" fill="#F2C4AC"></path><path d="M16.7144 19.1482C21.0747 14.7878 28.1442 14.7878 32.5046 19.1482C37.2775 23.9211 33.9739 20.6175 38.7468 25.3905C39.837 26.4806 39.837 28.2482 38.7468 29.3383C37.6567 30.4285 35.8891 30.4285 34.799 29.3383L28.5534 23.0927L16.7144 34.9384C12.354 30.578 12.354 23.5085 16.7144 19.1482Z" fill="#F2C4AC"></path><path d="M55.4811 55.4801C49.3425 61.6184 41.1811 64.999 32.5 64.999C23.8189 64.999 15.6575 61.6184 9.51895 55.4801C3.38064 49.3416 0 41.1801 0 32.499C0 23.9632 3.2858 15.8986 9.25222 9.79116C10.085 8.93905 11.4849 10.2308 10.6143 11.1219C4.99764 16.8715 1.9043 24.4634 1.9043 32.499C1.9043 40.6715 5.08676 48.3547 10.8655 54.1335C16.6443 59.9123 24.3275 63.0947 32.5 63.0947C40.6724 63.0947 48.3557 59.9123 54.1343 54.1335C59.9132 48.3547 63.0957 40.6714 63.0957 32.499C63.0957 24.3267 59.9132 16.6433 54.1343 10.8647C48.3557 5.08578 40.6724 1.90331 32.5 1.90331C25.8885 1.90331 19.5942 3.97912 14.2973 7.90617C13.3405 8.61634 12.1625 7.11842 13.1631 6.37651C18.7906 2.20432 25.4771 -0.000984192 32.5 -0.000984192C41.1811 -0.000984192 49.3425 3.37965 55.4811 9.51796C61.6194 15.6565 65 23.818 65 32.499C65 41.1801 61.6194 49.3416 55.4811 55.4801Z" fill="#2D2A6E"></path><path d="M16.0404 18.4739C18.3291 16.1853 21.3721 14.9248 24.6087 14.9248C27.5372 14.9248 30.307 15.9568 32.5032 17.8484C37.2446 13.7708 44.5405 14.0537 48.9594 18.4724C53.4296 22.9428 53.5869 30.1725 49.5783 34.9928C51.1522 36.4454 51.3204 38.9311 49.7706 40.4795C49.0206 41.2296 47.9709 41.628 46.9129 41.5697C47.0341 43.77 45.1671 45.6388 42.9649 45.5177C43.0861 47.7165 41.2189 49.5873 39.0168 49.4637C39.2153 53.0335 34.7948 54.6407 32.441 52.1321C31.8311 52.7171 31.1096 53.2683 30.0695 53.4034C27.7857 53.6998 25.7017 51.7562 25.8501 49.4614C23.6705 49.5585 21.7668 47.7024 21.9012 45.5134C21.3082 45.5387 20.6991 45.4201 20.1227 45.1511C18.7057 44.4902 17.8624 43.0934 17.9527 41.5729C16.9914 41.6265 16.0125 41.3153 15.2523 40.6434C13.0757 38.7198 13.9058 36.427 15.3329 34.8396C13.4939 32.6591 12.4912 29.928 12.4912 27.0424C12.4912 23.8056 13.7517 20.7627 16.0404 18.4739ZM47.1235 39.6718C48.7208 39.6718 49.5593 37.6671 48.4241 36.5317L45.0446 33.1522C43.3711 31.4787 40.7669 34.0775 42.4432 35.7535L45.8229 39.1331C46.1702 39.4805 46.6322 39.6718 47.1235 39.6718ZM43.1755 43.6198C44.7728 43.6198 45.6116 41.615 44.4763 40.4797L41.0966 37.1002C39.4231 35.4267 36.8178 38.0243 38.4952 39.7015L41.8747 43.0811C42.2222 43.4284 42.6842 43.6198 43.1755 43.6198ZM40.5283 47.0288C41.2315 46.3258 41.2329 45.1322 40.5283 44.4276L37.1488 41.0481C35.4753 39.3746 32.8712 41.9731 34.5474 43.6493L37.9269 47.0288C38.644 47.7463 39.8111 47.7463 40.5283 47.0288ZM36.5804 50.9768C37.2845 50.2702 37.2891 49.0841 36.5804 48.3756L33.2009 44.9959C31.5254 43.3208 28.9223 45.9207 30.5996 47.5973L33.9791 50.9768C34.6962 51.6941 35.8631 51.6941 36.5804 50.9768ZM27.7592 49.9111C27.8167 50.3916 28.0662 50.8256 28.4616 51.1334C29.3504 51.825 30.3484 51.4923 31.0938 50.7847C30.2667 49.9576 29.166 49.1148 28.6029 48.0726C28.0815 48.5546 27.6693 49.1619 27.7592 49.9111ZM16.3417 39.0809C16.8661 39.6054 18.1537 40.0361 19.0432 39.1478C21.1598 37.0331 23.3005 34.8905 25.4254 32.7655C26.2681 31.9233 27.6529 33.2311 26.772 34.1121C24.6447 36.2395 22.5146 38.3639 20.3899 40.4941C18.7347 42.154 21.4151 44.6718 22.9913 43.0955C25.1187 40.9681 27.2459 38.8407 29.3733 36.7134C30.216 35.8712 31.6008 37.1789 30.7199 38.06C28.5949 40.1849 26.4508 42.324 24.3378 44.442C22.6844 46.0995 25.2764 48.6934 26.9358 47.0464L28.1907 45.7914C28.447 43.8803 30.1917 42.452 32.1124 42.5593C31.9897 40.3621 33.8606 38.4906 36.0585 38.6134C35.9364 36.4152 37.8058 34.5413 40.0084 34.6655C39.9504 33.6372 40.3127 32.5894 41.0965 31.8055C42.5562 30.3462 44.9313 30.3459 46.391 31.8056L48.2083 33.623C51.0809 29.2105 51.6157 23.8223 47.6126 19.8191C43.9379 16.1443 37.8814 15.8555 33.8804 19.1774L39.4192 24.7162C42.8345 28.1317 37.5279 33.4139 34.1248 30.0108L28.5527 24.4385L24.031 28.9628C23.1886 29.8056 21.8036 28.4977 22.6841 27.6166C22.6841 27.6166 26.9801 23.1272 27.9566 22.3466C28.3323 22.0461 28.8863 22.0791 29.2259 22.4183L35.4713 28.6639C37.1464 30.3396 39.7497 27.7395 38.0727 26.0627L31.8305 19.8204C29.9015 17.8913 27.3367 16.829 24.6086 16.829C21.8805 16.829 19.3159 17.8913 17.3867 19.8204C15.4578 21.7493 14.3953 24.314 14.3953 27.0421C14.3953 29.4358 15.2139 31.7033 16.7176 33.5264L19.1114 31.1914C19.9537 30.3486 21.3388 31.6565 20.4583 32.5376C19.5771 33.3686 17.0058 35.843 17.0058 35.843C16.3362 36.5205 15.0222 37.8523 16.3417 39.0809Z" fill="#2D2A6E"></path></svg>