<svg xmlns="http://www.w3.org/2000/svg" width="65" height="65" viewBox="0 0 65 65" fill="none"><path d="M42.3849 43.0236C47.8445 43.0236 52.2704 38.5977 52.2704 33.1381C52.2704 27.6785 47.8445 23.2526 42.3849 23.2526C42.3849 17.793 37.9591 13.3672 32.4994 13.3672C27.0398 13.3672 22.614 17.793 22.614 23.2526C17.1544 23.2526 12.7285 27.6785 12.7285 33.1381C12.7285 38.5977 17.1544 43.0236 22.614 43.0236H42.3849Z" fill="#DBEEFF"></path><path d="M42.3855 23.2526C42.3855 17.793 37.9596 13.3672 32.5 13.3672C31.622 13.3672 30.7714 13.4831 29.9609 13.6979C34.1899 14.8189 37.3073 18.671 37.3073 23.2526C42.7669 23.2526 47.1928 27.6785 47.1928 33.1381C47.1928 38.5977 42.7669 43.0236 37.3073 43.0236H42.3855C47.8451 43.0236 52.2709 38.5977 52.2709 33.1381C52.2709 27.6785 47.8449 23.2526 42.3855 23.2526Z" fill="#CCE7FF"></path><path d="M41.255 37.803C41.255 37.803 38.3492 37.3836 35.9604 38.4415C35.1764 35.7487 32.499 33.7471 32.499 33.7471C32.499 33.7471 29.8217 35.7487 29.0377 38.4415C26.6489 37.3836 23.7431 37.803 23.7431 37.803C23.0742 43.4971 26.7086 47.2574 32.499 47.2568C38.2894 47.2561 41.924 43.4976 41.255 37.803Z" fill="#9EE8C0"></path><path d="M41.2549 37.8024C41.2549 37.8024 38.5598 37.4141 36.2269 38.3304C36.5539 42.8613 34.0796 46.0741 29.959 46.9897C30.748 47.1651 31.5973 47.2564 32.4989 47.2562C38.2893 47.2556 41.9239 43.497 41.2549 37.8024Z" fill="#8ADEB0"></path><path d="M55.4811 9.51895C49.3425 3.38064 41.1811 0 32.5 0C23.8189 0 15.6575 3.38064 9.51895 9.51895C3.38064 15.6574 0 23.8189 0 32.5C0 37.6427 1.16695 42.5623 3.46849 47.1218C5.66262 51.4687 8.87123 55.3368 12.7475 58.3078C13.165 58.628 13.7625 58.5486 14.0824 58.1313C14.4025 57.714 14.3232 57.1163 13.9059 56.7964C10.2557 53.9985 7.2343 50.3562 5.16852 46.2636C3.00244 41.9727 1.9043 37.342 1.9043 32.5C1.9043 24.3276 5.08676 16.6443 10.8657 10.8655C16.6443 5.08676 24.3276 1.9043 32.5 1.9043C40.6724 1.9043 48.3557 5.08676 54.1343 10.8655C59.9132 16.6443 63.0957 24.3276 63.0957 32.5C63.0957 40.6724 59.9132 48.3557 54.1343 54.1343C48.3557 59.9132 40.6724 63.0957 32.5 63.0957C27.4564 63.0957 22.4566 61.8415 18.0407 59.4689C17.5773 59.2197 17.0002 59.3935 16.7513 59.857C16.5024 60.3201 16.6762 60.8975 17.1394 61.1463C21.8315 63.6674 27.1431 65 32.5 65C41.1811 65 49.3425 61.6194 55.4811 55.4811C61.6194 49.3425 65 41.1811 65 32.5C65 23.8189 61.6194 15.6574 55.4811 9.51895Z" fill="#2D2A6E"></path><path d="M22.6148 24.2048C23.1408 24.2048 23.567 23.7786 23.567 23.2526C23.567 18.3267 27.5744 14.3193 32.5003 14.3193C33.6185 14.3193 34.7084 14.523 35.7399 14.9248C36.8873 15.3709 37.578 13.5972 36.4309 13.1501C35.1782 12.6623 33.8558 12.415 32.5003 12.415C26.8323 12.415 22.1666 16.789 21.7009 22.3387C16.1511 22.8044 11.7773 27.4702 11.7773 33.1381C11.7773 39.1139 16.639 43.9756 22.6148 43.9756H23.9876C25.5882 46.6055 28.5536 47.9605 31.5481 48.1725V51.6319C31.5481 52.8629 33.4524 52.8629 33.4524 51.6319V48.1724C36.4479 47.9599 39.4136 46.6031 41.0129 43.9757H42.3857C48.3615 43.9757 53.2232 39.114 53.2232 33.1382C53.2232 27.4699 48.849 22.8039 43.2989 22.3387C43.1169 20.2059 42.3028 18.1537 40.9609 16.4796C40.191 15.5189 38.705 16.7099 39.475 17.6705C40.7563 19.2691 41.4336 21.1994 41.4336 23.2529C41.4336 23.7789 41.8598 24.205 42.3857 24.205C47.3115 24.205 51.3189 28.2125 51.3189 33.1384C51.3189 38.0641 47.3115 42.0715 42.3857 42.0715H41.8629C42.2693 40.751 42.3881 39.2779 42.2019 37.6918C42.1515 37.2632 41.8193 36.9221 41.3922 36.8605C41.2779 36.8441 38.8769 36.5111 36.523 37.2218C35.4203 34.7623 33.1769 33.064 33.0706 32.9844C32.7323 32.7317 32.2685 32.7317 31.9303 32.9844C31.8239 33.064 29.5804 34.7623 28.4778 37.2218C26.1241 36.511 23.723 36.844 23.6086 36.8605C23.1815 36.9221 22.8494 37.2632 22.7989 37.6918C22.6125 39.2779 22.7314 40.7509 23.1377 42.0715H22.6151C17.6893 42.0715 13.6819 38.0641 13.6819 33.1384C13.6816 28.2122 17.689 24.2048 22.6148 24.2048ZM24.627 38.6855C25.5691 38.6441 27.2364 38.6843 28.6533 39.312C29.2696 39.5039 29.7027 39.3024 29.9531 38.7075C30.4279 37.0764 31.7393 35.6916 32.5014 34.9939C33.263 35.6891 34.57 37.0681 35.0473 38.7075C35.2977 39.3023 35.731 39.5038 36.3471 39.312C37.7641 38.6844 39.4312 38.6441 40.3734 38.6855C40.5829 43.3818 37.0127 46.304 32.5 46.3045C27.9452 46.3044 24.4172 43.3925 24.627 38.6855Z" fill="#2D2A6E"></path></svg>