<svg xmlns="http://www.w3.org/2000/svg" width="65" height="65" viewBox="0 0 65 65" fill="none"><path d="M21.1316 29.5513C25.0098 25.4341 29.5514 24.6596 35.5725 20.9669C40.7719 17.7782 43.4266 12.8682 43.4266 12.8682C43.4266 12.8682 52.6329 32.6298 42.1807 44.4781C37.468 49.8204 29.5179 51.0147 23.1116 46.846C16.7859 42.7301 16.1585 34.8312 21.1316 29.5513Z" fill="#9EE8C0"></path><path d="M43.4257 12.8682C43.4257 12.8682 42.2796 14.9875 40.019 17.3457C42.0754 23.8749 44.4596 36.1373 37.1017 44.4781C34.8951 46.9795 31.9789 48.5713 28.8438 49.1293C33.7789 49.9988 38.8079 48.3004 42.1798 44.4781C52.632 32.6297 43.4257 12.8682 43.4257 12.8682Z" fill="#8ADEB0"></path><path d="M44.2902 12.4655C43.9655 11.7687 42.9554 11.7387 42.5896 12.4144C42.5739 12.4434 40.98 15.354 37.8908 18.0668C36.9658 18.8792 38.2226 20.3101 39.1474 19.4977C41.0362 17.8388 42.4017 16.1241 43.2449 14.9227C43.9913 16.8703 45.1651 20.3597 45.7897 24.4209C46.3463 28.0396 46.3641 31.398 45.8427 34.4028C45.1999 38.1073 43.7276 41.2849 41.467 43.8476C39.3163 46.2856 36.3651 47.8611 33.157 48.2841C29.8924 48.7148 26.5092 47.9202 23.6311 46.0474C22.9038 45.5741 22.2505 45.0408 21.6755 44.4576C22.4655 43.4376 23.3858 42.4974 24.4238 41.6307C27.1743 39.3343 30.3498 37.6099 33.1891 35.4302C34.9107 34.1085 36.5106 32.6503 37.8455 30.932C38.1633 30.5229 38.2369 29.9854 37.8455 29.5855C37.5204 29.2532 36.8139 29.18 36.4989 29.5855C32.1442 35.1914 24.9224 37.5407 20.4228 42.9247C19.5715 41.6513 19.0322 40.2184 18.8491 38.6906C18.4893 35.6868 19.5739 32.5934 21.825 30.2037C24.1172 27.7702 26.7295 26.5308 29.7543 25.0957C31.3624 24.3327 33.0251 23.5438 34.8704 22.4883C35.939 21.8771 34.9934 20.2239 33.9249 20.8353C32.143 21.8545 30.5137 22.6275 28.9381 23.3751C25.7394 24.8928 22.9769 26.2034 20.4388 28.8978C17.7999 31.6996 16.5312 35.3514 16.9583 38.917C17.205 40.9764 17.9866 42.8864 19.2287 44.5354C18.0819 46.3042 17.3205 48.303 16.9074 50.3681C16.6681 51.5649 18.503 52.0769 18.7436 50.8744C19.0962 49.1121 19.7204 47.5118 20.5843 46.0574C21.1877 46.6343 21.858 47.1657 22.5925 47.6436C25.3294 49.4246 28.386 50.292 31.3922 50.2918C35.6905 50.2918 39.8856 48.5186 42.8949 45.1074C45.3974 42.2707 47.0219 38.7697 47.7233 34.7019C48.2778 31.4866 48.2578 27.9143 47.6643 24.0838C46.6605 17.6031 44.3865 12.6722 44.2902 12.4655Z" fill="#2D2A6E"></path><path d="M55.4811 9.51895C49.3425 3.38064 41.1811 0 32.5 0C23.8189 0 15.6575 3.38064 9.51895 9.51895C3.38064 15.6575 0 23.8189 0 32.5C0 41.1811 3.38064 49.3425 9.51895 55.4811C15.6575 61.6194 23.8189 65 32.5 65C37.2583 65 41.8468 63.9926 46.1378 62.0061C47.255 61.4889 46.4549 59.7608 45.3378 60.278C41.2994 62.1477 36.98 63.0957 32.5 63.0957C24.3275 63.0957 16.6443 59.9132 10.8655 54.1345C5.08676 48.3557 1.9043 40.6725 1.9043 32.5C1.9043 24.3275 5.08676 16.6443 10.8655 10.8655C16.6443 5.08676 24.3275 1.9043 32.5 1.9043C40.6725 1.9043 48.3557 5.08676 54.1345 10.8655C59.9132 16.6443 63.0957 24.3275 63.0957 32.5C63.0957 42.7063 58.0317 52.2045 49.5494 57.908C48.5278 58.595 49.5904 60.1753 50.612 59.4882C59.6213 53.4305 65 43.3413 65 32.5C65 23.8189 61.6194 15.6575 55.4811 9.51895Z" fill="#2D2A6E"></path></svg>