<svg xmlns="http://www.w3.org/2000/svg" width="21" height="26" viewBox="0 0 21 26" fill="none"><path d="M7.60002 19.5996L3.68874 24.6284C3.57124 24.7795 3.6789 24.9996 3.87029 24.9996H5.70038C5.76395 24.9996 5.82469 24.9733 5.86817 24.9269L9.1956 21.3777C9.29886 21.2675 9.47842 21.285 9.55843 21.4131L11.8 24.9996" stroke="#96AE00" stroke-width="1.5" stroke-linecap="round"/><path d="M18.062 18.4425L17.6114 17.8429L18.062 18.4425ZM1.01352 8.18135L0.264562 8.14181L1.01352 8.18135ZM1.69442 5.15241L2.38638 5.44171L1.69442 5.15241ZM2.56801 4.86376L2.18125 5.50634L2.56801 4.86376ZM20.0979 16.2291L19.4629 15.83L20.0979 16.2291ZM19.8678 15.2762L20.2545 14.6336L19.8678 15.2762ZM16 2.79951L16.7161 2.57647L16.5229 1.95622L15.8814 2.05895L16 2.79951ZM18.8852 14.5841L19.1082 15.3002L20.5404 14.8541L20.3173 14.138L18.8852 14.5841ZM10.7875 9.07822L10.3635 9.69686L11.6008 10.5449L12.0248 9.92622L10.7875 9.07822ZM15.1859 0.356392C14.8307 0.143281 14.37 0.258455 14.1569 0.61364C13.9438 0.968825 14.0589 1.42952 14.4141 1.64263L15.1859 0.356392ZM17.4141 3.44263C17.7693 3.65574 18.23 3.54057 18.4431 3.18538C18.6562 2.8302 18.5411 2.3695 18.1859 2.15639L17.4141 3.44263ZM3.11614 4.10335L2.37557 4.22196L2.61278 5.70308L3.35334 5.58448L3.11614 4.10335ZM19.4629 15.83C18.9731 16.6093 18.3486 17.2889 17.6114 17.8429L18.5125 19.0421C19.3965 18.3778 20.1458 17.5622 20.7329 16.6283L19.4629 15.83ZM17.6114 17.8429C16.7053 18.5239 15.6426 19.0047 14.4804 19.2537L14.7947 20.7204C16.1614 20.4275 17.4259 19.8586 18.5125 19.0421L17.6114 17.8429ZM14.4804 19.2537C13.3177 19.5029 12.0771 19.5154 10.829 19.2844L10.556 20.7594C11.9879 21.0244 13.4284 21.0133 14.7947 20.7204L14.4804 19.2537ZM10.829 19.2844C9.58067 19.0534 8.35172 18.5837 7.21419 17.899L6.44066 19.1842C7.72642 19.9581 9.12417 20.4944 10.556 20.7594L10.829 19.2844ZM7.21419 17.899C6.07666 17.2144 5.05595 16.33 4.21146 15.2969L3.0501 16.2463C4.00316 17.4122 5.1549 18.4103 6.44066 19.1842L7.21419 17.899ZM4.21146 15.2969C3.36697 14.2638 2.71756 13.1051 2.29824 11.8891L0.880179 12.378C1.359 13.7667 2.09705 15.0804 3.0501 16.2463L4.21146 15.2969ZM2.29824 11.8891C1.87895 10.6731 1.69883 9.42641 1.76248 8.22089L0.264562 8.14181C0.19021 9.55009 0.401331 10.9893 0.880179 12.378L2.29824 11.8891ZM1.76248 8.22089C1.81424 7.24039 2.02638 6.30277 2.38638 5.44171L1.00246 4.86311C0.573671 5.8887 0.325061 6.99589 0.264562 8.14181L1.76248 8.22089ZM2.38638 5.44171C2.37682 5.46457 2.34674 5.49998 2.29723 5.51588C2.25047 5.53089 2.20689 5.52178 2.18125 5.50634L2.95477 4.22117C2.25196 3.79816 1.33231 4.07418 1.00246 4.86311L2.38638 5.44171ZM20.7329 16.6283C21.1689 15.9346 20.9199 15.034 20.2545 14.6336L19.481 15.9188C19.4585 15.9052 19.4527 15.8897 19.4513 15.884C19.4493 15.876 19.4478 15.854 19.4629 15.83L20.7329 16.6283ZM2.18125 5.50634L19.481 15.9188L20.2545 14.6336L2.95477 4.22117L2.18125 5.50634ZM15.2839 3.02256L18.8852 14.5841L20.3173 14.138L16.7161 2.57647L15.2839 3.02256ZM12.0248 9.92622L16.6186 3.22352L15.3814 2.37551L10.7875 9.07822L12.0248 9.92622ZM14.4141 1.64263L17.4141 3.44263L18.1859 2.15639L15.1859 0.356392L14.4141 1.64263ZM3.35334 5.58448L16.1186 3.54007L15.8814 2.05895L3.11614 4.10335L3.35334 5.58448Z" fill="white"/></svg>