<svg xmlns="http://www.w3.org/2000/svg" width="21" height="26" viewBox="0 0 21 26" fill="none"><path d="M7.5999 19.5998L3.68862 24.6286C3.57111 24.7797 3.67878 24.9998 3.87017 24.9998H5.70026C5.76383 24.9998 5.82457 24.9735 5.86805 24.9271L9.19548 21.3779C9.29873 21.2677 9.4783 21.2853 9.55831 21.4133L11.7999 24.9998" stroke="#96AE00" stroke-width="1.5" stroke-linecap="round"></path><path d="M18.062 18.4427L17.6114 17.8431L18.062 18.4427ZM1.01352 8.18156L0.264562 8.14202L1.01352 8.18156ZM1.69442 5.15263L2.38638 5.44193L1.69442 5.15263ZM2.56801 4.86397L2.18125 5.50656L2.56801 4.86397ZM20.0979 16.2294L19.4629 15.8302L20.0979 16.2294ZM19.8678 15.2764L20.2545 14.6338L19.8678 15.2764ZM16 2.79973L16.7161 2.57668L16.5229 1.95643L15.8814 2.05916L16 2.79973ZM18.8852 14.5843L19.1082 15.3004L20.5404 14.8543L20.3173 14.1382L18.8852 14.5843ZM10.7875 9.07843L10.3635 9.69708L11.6008 10.5451L12.0248 9.92644L10.7875 9.07843ZM15.1859 0.356606C14.8307 0.143495 14.37 0.258668 14.1569 0.613854C13.9438 0.969039 14.0589 1.42973 14.4141 1.64285L15.1859 0.356606ZM17.4141 3.44285C17.7693 3.65596 18.23 3.54078 18.4431 3.1856C18.6562 2.83041 18.5411 2.36972 18.1859 2.15661L17.4141 3.44285ZM3.11614 4.10357L2.37557 4.22217L2.61278 5.7033L3.35334 5.58469L3.11614 4.10357ZM19.4629 15.8302C18.9731 16.6095 18.3486 17.2891 17.6114 17.8431L18.5125 19.0423C19.3965 18.378 20.1458 17.5624 20.7329 16.6285L19.4629 15.8302ZM17.6114 17.8431C16.7053 18.5241 15.6426 19.0049 14.4804 19.254L14.7947 20.7207C16.1614 20.4277 17.4259 19.8588 18.5125 19.0423L17.6114 17.8431ZM14.4804 19.254C13.3177 19.5031 12.0771 19.5156 10.829 19.2846L10.556 20.7596C11.9879 21.0246 13.4284 21.0135 14.7947 20.7207L14.4804 19.254ZM10.829 19.2846C9.58067 19.0536 8.35172 18.5839 7.21419 17.8992L6.44066 19.1844C7.72642 19.9583 9.12417 20.4946 10.556 20.7596L10.829 19.2846ZM7.21419 17.8992C6.07666 17.2146 5.05595 16.3302 4.21146 15.2971L3.0501 16.2465C4.00316 17.4124 5.1549 18.4105 6.44066 19.1844L7.21419 17.8992ZM4.21146 15.2971C3.36697 14.264 2.71756 13.1053 2.29824 11.8893L0.880179 12.3782C1.359 13.7669 2.09705 15.0806 3.0501 16.2465L4.21146 15.2971ZM2.29824 11.8893C1.87895 10.6733 1.69883 9.42663 1.76248 8.2211L0.264562 8.14202C0.19021 9.5503 0.401331 10.9896 0.880179 12.3782L2.29824 11.8893ZM1.76248 8.2211C1.81424 7.24061 2.02638 6.30298 2.38638 5.44193L1.00246 4.86332C0.573671 5.88892 0.325061 6.9961 0.264562 8.14202L1.76248 8.2211ZM2.38638 5.44193C2.37682 5.46478 2.34674 5.5002 2.29723 5.51609C2.25047 5.5311 2.20689 5.52199 2.18125 5.50656L2.95477 4.22139C2.25196 3.79837 1.33231 4.07439 1.00246 4.86332L2.38638 5.44193ZM20.7329 16.6285C21.1689 15.9348 20.9199 15.0342 20.2545 14.6338L19.481 15.919C19.4585 15.9054 19.4527 15.8899 19.4513 15.8842C19.4493 15.8762 19.4478 15.8542 19.4629 15.8302L20.7329 16.6285ZM2.18125 5.50656L19.481 15.919L20.2545 14.6338L2.95477 4.22139L2.18125 5.50656ZM15.2839 3.02277L18.8852 14.5843L20.3173 14.1382L16.7161 2.57668L15.2839 3.02277ZM12.0248 9.92644L16.6186 3.22373L15.3814 2.37572L10.7875 9.07843L12.0248 9.92644ZM14.4141 1.64285L17.4141 3.44285L18.1859 2.15661L15.1859 0.356606L14.4141 1.64285ZM3.35334 5.58469L16.1186 3.54029L15.8814 2.05916L3.11614 4.10357L3.35334 5.58469Z" fill="#2D2A6E"></path></svg>