<svg xmlns="http://www.w3.org/2000/svg" width="22" height="26" viewBox="0 0 22 26" fill="none"><path fill-rule="evenodd" clip-rule="evenodd" d="M12.9136 11.1187C13.4987 11.1187 13.973 10.6445 13.973 10.0594C13.973 9.47436 13.4987 9.00009 12.9136 9.00009C12.3286 9.00009 11.8543 9.47436 11.8543 10.0594C11.8543 10.6445 12.3286 11.1187 12.9136 11.1187ZM6.17723 9.33395C6.44463 9.01761 6.91784 8.97793 7.23418 9.24533L7.73982 9.67274C8.05616 9.94013 8.09583 10.4133 7.82843 10.7297C7.56104 11.046 7.08782 11.0857 6.77148 10.8183L6.26585 10.3909C5.94951 10.1235 5.90983 9.65029 6.17723 9.33395ZM8.76861 11.5244C9.03601 11.2081 9.50922 11.1684 9.82556 11.4358L10.0152 11.5961L10.7736 12.2372L11.2793 12.6646L15.3243 16.0838C15.6407 16.3512 15.6803 16.8244 15.4129 17.1408C15.1455 17.4571 14.6723 17.4968 14.356 17.2294L10.3109 13.8101L9.80529 13.3827L9.04684 12.7416L8.85722 12.5814C8.54088 12.314 8.50121 11.8407 8.76861 11.5244ZM9.73569 16.4153C9.73569 17.0004 9.26141 17.4746 8.67637 17.4746C8.09132 17.4746 7.61705 17.0004 7.61705 16.4153C7.61705 15.8303 8.09132 15.356 8.67637 15.356C9.26141 15.356 9.73569 15.8303 9.73569 16.4153Z" fill="#2D2A6E"></path><path d="M1 16.2499V7.44698C1 5.1072 2.96513 3.27476 5.2392 3.49401L6.34923 3.60103C7.29689 3.69239 8.20196 3.17786 8.62764 2.30575C9.47738 0.56487 11.9026 0.56487 12.7524 2.30575C13.178 3.17786 14.0831 3.69239 15.0308 3.60103L16.1408 3.49401C18.4149 3.27476 20.38 5.10721 20.38 7.44698V16.2499C20.38 17.4225 19.874 18.5352 18.9976 19.2896L13.1836 24.2943C11.7419 25.5353 9.63808 25.5353 8.1964 24.2943L2.3824 19.2896C1.50602 18.5352 1 17.4225 1 16.2499Z" stroke="#2D2A6E" stroke-width="1.5" stroke-linecap="round"></path><path d="M1 7.44698C1 5.1072 2.96513 3.27476 5.2392 3.49401L6.34923 3.60103C7.29689 3.69239 8.20196 3.17786 8.62764 2.30576C9.47738 0.564871 11.9026 0.56487 12.7524 2.30576C13.178 3.17786 14.0831 3.69239 15.0308 3.60103L16.1408 3.49401C18.4149 3.27476 20.38 5.10721 20.38 7.44698" stroke="#96AE00" stroke-width="1.5" stroke-linecap="square"></path></svg>