<svg xmlns="http://www.w3.org/2000/svg" width="29" height="27" viewBox="0 0 29 27" fill="none"><path d="M6.17009 17.8356V17.8356C4.72593 18.1125 3.33072 17.1663 3.0538 15.7221L1.52729 7.76122C1.23608 6.24249 2.22918 4.77563 3.74791 4.48441C5.96625 4.05904 9.0962 3.45887 11.4595 3.00571C13.8489 2.54755 17.033 1.99748 19.2646 1.61979C20.7605 1.36659 22.1793 2.35765 22.4651 3.84774C22.5751 4.42164 22.694 5.04186 22.8125 5.6595" stroke="#96AE00" stroke-width="1.5" stroke-linecap="round"></path><path d="M6.3252 10.0524V19.6375C6.3252 21.1079 7.51725 22.3 8.98771 22.3H9.31064C9.86752 22.3 10.319 22.7514 10.319 23.3083C10.319 24.4061 10.4116 26.0302 11.509 25.9994C12.2534 25.9786 12.5196 25.0685 12.9245 24.4434L13.4851 23.5778C14.0012 22.781 14.8859 22.3 15.8352 22.3H23.8978C25.9565 22.3 27.6253 20.6314 27.6253 18.5728V10.1411C27.6253 8.12811 26.3096 6.37343 24.2972 6.32487C22.1289 6.27255 19.1057 6.32489 16.9753 6.32489H10.0522C7.99351 6.32489 6.3252 7.99376 6.3252 10.0524Z" stroke="#2D2A6E" stroke-width="1.5" stroke-linecap="round"></path><circle cx="11.6501" cy="14.3126" r="1.33126" fill="#96AE00"></circle><circle cx="16.9753" cy="14.3126" r="1.33126" fill="#96AE00"></circle><circle cx="22.3" cy="14.3126" r="1.33126" fill="#96AE00"></circle></svg>